{"glyphs":{"0":{"ha":746,"x_min":94,"x_max":898,"o":"m 251 -14 q 122 45 165 -14 q 94 134 94 84 q 101 186 94 159 l 246 729 q 343 870 268 811 q 503 929 418 929 l 741 929 q 869 870 826 929 q 898 781 898 831 q 890 729 898 757 l 745 186 q 648 45 723 104 q 488 -14 574 -14 l 251 -14 m 395 271 q 393 256 393 263 q 400 233 393 243 q 431 217 412 217 q 471 233 451 217 q 496 271 490 248 l 597 644 q 599 659 599 652 q 591 683 599 673 q 560 699 580 699 q 521 683 541 699 q 495 644 501 667 l 395 271 z "},"1":{"ha":475,"x_min":149,"x_max":673,"o":"m 420 -14 l 149 -14 l 340 699 l 238 699 l 300 929 l 673 929 l 420 -14 z "},"2":{"ha":746,"x_min":47,"x_max":879,"o":"m 469 359 q 430 344 450 359 q 404 305 410 328 l 380 217 l 753 217 l 692 -14 l 47 -14 l 133 305 q 270 506 164 422 q 497 590 376 590 l 531 590 q 570 606 551 590 q 597 644 590 621 q 599 659 599 652 q 591 683 599 673 q 560 699 580 699 l 374 699 l 435 929 l 656 929 q 838 846 777 929 q 879 720 879 790 q 868 644 879 684 q 730 443 836 527 q 503 359 624 359 l 469 359 z "},"3":{"ha":746,"x_min":47,"x_max":898,"o":"m 469 359 l 283 359 l 345 590 l 531 590 q 570 606 551 590 q 597 644 590 621 q 599 659 599 652 q 591 683 599 673 q 560 699 580 699 l 238 699 l 300 929 l 741 929 q 869 870 826 929 q 898 781 898 831 q 890 729 898 757 l 850 576 q 767 475 831 506 q 800 410 800 452 q 795 373 800 393 l 745 186 q 648 45 723 104 q 488 -14 574 -14 l 47 -14 l 109 217 l 431 217 q 471 233 451 217 q 496 271 490 248 l 506 305 q 508 320 508 313 q 500 344 508 334 q 469 359 489 359 z "},"4":{"ha":746,"x_min":102,"x_max":944,"o":"m 510 820 q 760 929 612 929 l 944 929 l 882 699 l 706 699 l 436 387 l 528 387 l 564 522 l 835 522 l 692 -14 l 420 -14 l 475 190 l 102 190 l 161 410 l 510 820 z "},"5":{"ha":746,"x_min":47,"x_max":808,"o":"m 469 359 l 147 359 l 300 929 l 808 929 l 747 699 l 509 699 l 480 590 l 565 590 q 747 507 686 590 q 788 380 788 451 q 777 305 788 345 l 768 271 q 630 70 736 154 q 404 -14 524 -14 l 47 -14 l 109 217 l 431 217 q 471 233 451 217 q 496 271 490 248 l 506 305 q 508 320 508 313 q 500 344 508 334 q 469 359 489 359 z "},"6":{"ha":746,"x_min":94,"x_max":808,"o":"m 418 359 l 395 271 q 393 256 393 263 q 400 233 393 243 q 431 217 412 217 q 471 233 451 217 q 496 271 490 248 l 506 305 q 508 320 508 313 q 500 344 508 334 q 469 359 489 359 l 418 359 m 251 -14 q 122 45 165 -14 q 94 134 94 84 q 101 186 94 159 l 246 729 q 343 870 268 811 q 503 929 418 929 l 808 929 l 747 699 l 560 699 q 521 683 541 699 q 495 644 501 667 l 480 590 l 650 590 q 779 531 735 590 q 807 442 807 492 q 800 390 807 418 l 745 186 q 648 45 723 104 q 488 -14 574 -14 l 251 -14 z "},"7":{"ha":678,"x_min":111,"x_max":876,"o":"m 538 699 l 238 699 l 300 929 l 876 929 l 818 711 l 382 -14 l 111 -14 l 538 699 z "},"8":{"ha":746,"x_min":94,"x_max":898,"o":"m 431 217 q 471 233 451 217 q 496 271 490 248 l 506 305 q 508 320 508 313 q 500 344 508 334 q 469 359 489 359 q 430 344 450 359 q 404 305 410 328 l 395 271 q 393 256 393 263 q 400 233 393 243 q 431 217 412 217 m 531 590 q 570 606 551 590 q 597 644 590 621 q 599 659 599 652 q 591 683 599 673 q 560 699 580 699 q 521 683 541 699 q 495 644 501 667 q 492 628 492 635 q 500 606 492 615 q 531 590 511 590 m 741 929 q 869 870 826 929 q 898 781 898 831 q 890 729 898 757 l 850 576 q 767 475 831 506 q 800 410 800 452 q 795 373 800 393 l 745 186 q 648 45 723 104 q 488 -14 574 -14 l 251 -14 q 122 45 165 -14 q 94 134 94 84 q 101 186 94 159 l 151 373 q 234 475 170 444 q 200 539 200 497 q 205 576 200 556 l 246 729 q 343 870 268 811 q 503 929 418 929 l 741 929 z "},"9":{"ha":746,"x_min":183,"x_max":898,"o":"m 573 556 l 597 644 q 599 659 599 652 q 591 683 599 673 q 560 699 580 699 q 521 683 541 699 q 495 644 501 667 l 486 610 q 484 595 484 602 q 491 572 484 582 q 522 556 503 556 l 573 556 m 741 929 q 869 870 826 929 q 898 781 898 831 q 890 729 898 757 l 745 186 q 648 45 723 104 q 488 -14 574 -14 l 183 -14 l 245 217 l 431 217 q 471 233 451 217 q 496 271 490 248 l 511 326 l 342 326 q 213 385 256 326 q 184 473 184 423 q 192 526 184 498 l 246 729 q 343 870 268 811 q 503 929 418 929 l 741 929 z "},"\u0000":{"ha":102,"x_min":0,"x_max":0,"o":""}," ":{"ha":678,"x_min":0,"x_max":0,"o":""},"!":{"ha":373,"x_min":47,"x_max":571,"o":"m 109 217 l 380 217 l 319 -14 l 47 -14 l 109 217 m 120 258 l 300 929 l 571 929 l 391 258 l 120 258 z "},"\"":{"ha":678,"x_min":250,"x_max":876,"o":"m 300 929 l 571 929 l 531 780 q 457 638 512 709 l 399 563 l 275 563 l 258 638 q 250 705 250 672 q 260 780 250 743 l 300 929 m 605 929 l 876 929 l 836 780 q 762 638 817 709 l 705 563 l 580 563 l 563 638 q 555 705 555 672 q 565 780 555 743 l 605 929 z "},"#":{"ha":916,"x_min":102,"x_max":1059,"o":"m 557 495 l 536 420 l 604 420 l 625 495 l 557 495 m 475 190 l 448 88 l 176 88 l 203 190 l 102 190 l 163 420 l 265 420 l 286 495 l 184 495 l 245 726 l 347 726 l 374 827 l 646 827 l 618 726 l 686 726 l 713 827 l 985 827 l 958 726 l 1059 726 l 998 495 l 896 495 l 876 420 l 977 420 l 916 190 l 814 190 l 787 88 l 515 88 l 543 190 l 475 190 z "},"$":{"ha":746,"x_min":65,"x_max":858,"o":"m 490 293 q 493 296 492 295 q 510 322 506 306 q 512 334 512 328 q 507 349 512 342 q 505 351 507 349 q 486 359 498 359 l 401 359 q 241 433 295 359 q 205 544 205 482 q 214 610 205 575 q 336 788 242 713 q 448 848 395 834 l 469 929 l 741 929 l 722 861 l 858 861 l 796 631 l 508 631 q 495 625 502 631 q 486 610 488 620 q 484 604 484 606 q 487 595 484 599 q 497 590 491 590 l 582 590 q 753 511 695 590 q 791 393 791 459 q 781 322 791 359 q 652 133 752 212 q 508 62 577 75 l 488 -14 l 217 -14 l 235 54 l 65 54 l 127 285 l 467 285 q 490 293 479 285 z "},"%":{"ha":1085,"x_min":70,"x_max":1261,"o":"m 477 576 q 475 561 475 568 q 482 538 475 548 q 513 522 493 522 q 552 538 532 522 q 578 576 572 553 l 597 644 q 599 659 599 652 q 591 683 599 673 q 560 699 580 699 q 521 683 541 699 q 495 644 501 667 l 477 576 m 734 271 q 732 256 732 263 q 739 233 732 243 q 770 217 751 217 q 810 233 790 217 q 836 271 829 248 l 854 339 q 856 354 856 347 q 848 378 856 368 q 817 393 837 393 q 778 378 798 393 q 752 339 758 362 l 734 271 m 355 292 l 332 292 q 204 351 247 292 q 175 439 175 390 q 182 492 175 464 l 246 729 q 343 870 268 811 q 503 929 418 929 l 741 929 q 871 869 826 929 q 882 854 880 854 l 882 855 l 951 929 l 1261 929 l 976 624 l 998 624 q 1127 565 1084 624 q 1155 477 1155 526 q 1147 424 1155 452 l 1084 186 q 987 45 1062 104 q 827 -14 913 -14 l 590 -14 q 461 47 505 -14 q 449 61 450 61 l 449 60 l 380 -14 l 70 -14 l 355 292 z "},"&":{"ha":746,"x_min":94,"x_max":853,"o":"m 431 217 l 435 349 q 430 344 433 347 q 404 305 410 328 l 395 271 q 393 256 393 263 q 400 233 393 243 q 431 217 412 217 m 251 -14 q 122 45 165 -14 q 94 134 94 84 q 101 186 94 159 l 151 373 q 234 475 170 444 q 200 539 200 497 q 205 576 200 556 l 246 729 q 343 870 268 811 q 503 929 418 929 l 808 929 l 747 699 l 560 699 q 521 683 541 699 q 495 644 501 667 q 492 628 492 635 q 500 606 492 615 q 531 590 511 590 l 853 590 l 791 359 l 707 359 l 695 -14 l 251 -14 z "},"'":{"ha":373,"x_min":250,"x_max":571,"o":"m 300 929 l 571 929 l 531 780 q 457 638 512 709 l 399 563 l 275 563 l 258 638 q 250 705 250 672 q 260 780 250 743 l 300 929 z "},"(":{"ha":509,"x_min":75,"x_max":725,"o":"m 413 149 l 498 149 l 436 -81 l 233 -81 q 104 -22 147 -81 q 75 66 75 16 q 83 119 75 91 l 264 797 q 361 938 286 879 q 522 997 436 997 l 725 997 l 663 766 l 578 766 q 539 751 559 766 q 513 712 519 735 l 376 203 q 374 189 374 195 q 382 165 374 175 q 413 149 393 149 z "},")":{"ha":509,"x_min":29,"x_max":679,"o":"m 176 149 q 215 165 195 149 q 241 203 235 180 l 377 712 q 379 728 379 720 q 372 751 379 741 q 341 766 361 766 l 256 766 l 318 997 l 522 997 q 650 938 607 997 q 679 849 679 899 q 671 797 679 825 l 490 119 q 393 -22 467 37 q 233 -81 318 -81 l 29 -81 l 91 149 l 176 149 z "},"*":{"ha":848,"x_min":215,"x_max":970,"o":"m 841 619 l 904 506 l 634 353 l 555 491 l 404 353 l 215 506 l 339 619 l 217 633 l 363 897 l 524 878 l 555 997 l 827 997 l 795 878 l 965 897 l 970 633 l 841 619 z "},"+":{"ha":712,"x_min":147,"x_max":819,"o":"m 317 359 l 147 359 l 209 590 l 378 590 l 424 760 l 695 760 l 650 590 l 819 590 l 758 359 l 588 359 l 543 190 l 271 190 l 317 359 z "},",":{"ha":373,"x_min":2,"x_max":380,"o":"m 327 17 q 230 -124 304 -65 q 70 -183 155 -183 l 2 -183 l 109 217 l 380 217 l 327 17 z "},"-":{"ha":678,"x_min":147,"x_max":785,"o":"m 147 359 l 209 590 l 785 590 l 724 359 l 147 359 z "},".":{"ha":373,"x_min":47,"x_max":380,"o":"m 109 217 l 380 217 l 319 -14 l 47 -14 l 109 217 z "},"/":{"ha":746,"x_min":41,"x_max":950,"o":"m 314 -14 l 41 -14 l 677 929 l 950 929 l 314 -14 z "},":":{"ha":373,"x_min":47,"x_max":480,"o":"m 109 217 l 380 217 l 319 -14 l 47 -14 l 109 217 m 209 590 l 480 590 l 418 359 l 147 359 l 209 590 z "},";":{"ha":373,"x_min":2,"x_max":480,"o":"m 209 590 l 480 590 l 418 359 l 147 359 l 209 590 m 327 17 q 230 -124 304 -65 q 70 -183 155 -183 l 2 -183 l 109 217 l 380 217 l 327 17 z "},"<":{"ha":678,"x_min":182,"x_max":859,"o":"m 182 509 l 544 793 l 859 793 l 497 509 l 705 224 l 391 224 l 182 509 z "},"=":{"ha":678,"x_min":111,"x_max":840,"o":"m 201 563 l 264 793 l 840 793 l 778 563 l 201 563 m 111 224 l 173 454 l 749 454 l 687 224 l 111 224 z "},">":{"ha":678,"x_min":92,"x_max":768,"o":"m 407 224 l 92 224 l 454 509 l 245 793 l 560 793 l 768 509 l 407 224 z "},"?":{"ha":746,"x_min":115,"x_max":879,"o":"m 188 258 l 218 373 q 531 590 277 590 q 570 606 551 590 q 597 644 590 621 q 599 659 599 652 q 591 683 599 673 q 560 699 580 699 l 238 699 l 300 929 l 656 929 q 838 846 777 929 q 879 720 879 790 q 868 644 879 684 q 730 443 836 527 q 503 359 624 359 q 481 339 486 359 l 459 258 l 188 258 m 448 217 l 387 -14 l 115 -14 l 177 217 l 448 217 z "},"@":{"ha":746,"x_min":94,"x_max":898,"o":"m 391 258 q 391 254 391 256 q 400 233 391 245 q 431 217 412 217 l 618 217 l 556 -14 l 251 -14 q 122 45 165 -14 q 94 134 94 84 q 101 186 94 159 l 246 729 q 343 870 268 811 q 503 929 418 929 l 741 929 q 869 870 826 929 q 898 781 898 831 q 890 729 898 757 l 764 258 l 391 258 m 560 699 q 521 683 541 699 q 495 644 501 667 l 453 488 l 555 488 l 597 644 q 599 659 599 652 q 591 683 599 673 q 560 699 580 699 z "},"A":{"ha":814,"x_min":10,"x_max":833,"o":"m 542 516 l 395 217 l 535 217 l 542 516 m 543 590 l 546 699 l 238 699 l 300 929 l 724 929 q 833 842 833 929 l 833 833 l 797 -14 l 10 -14 l 306 590 l 543 590 z "},"B":{"ha":746,"x_min":47,"x_max":898,"o":"m 531 590 q 570 606 551 590 q 597 644 590 621 q 599 659 599 652 q 591 683 599 673 q 560 699 580 699 l 238 699 l 300 929 l 741 929 q 869 870 826 929 q 898 781 898 831 q 890 729 898 757 l 850 576 q 767 475 831 506 q 800 410 800 452 q 795 373 800 393 l 745 186 q 648 45 723 104 q 488 -14 574 -14 l 47 -14 l 209 590 l 531 590 m 418 359 l 380 217 l 431 217 q 471 233 451 217 q 496 271 490 248 l 506 305 q 508 320 508 313 q 500 344 508 334 q 469 359 489 359 l 418 359 z "},"C":{"ha":678,"x_min":94,"x_max":876,"o":"m 431 217 l 686 217 l 624 -14 l 251 -14 q 122 45 165 -14 q 94 134 94 84 q 101 186 94 159 l 246 729 q 343 870 268 811 q 503 929 418 929 l 876 929 l 814 699 l 560 699 q 521 683 541 699 q 495 644 501 667 l 395 271 q 393 256 393 263 q 400 233 393 243 q 431 217 412 217 z "},"D":{"ha":746,"x_min":47,"x_max":898,"o":"m 560 699 l 238 699 l 300 929 l 741 929 q 869 870 826 929 q 898 781 898 831 q 890 729 898 757 l 745 186 q 648 45 723 104 q 488 -14 574 -14 l 47 -14 l 209 590 l 480 590 l 380 217 l 431 217 q 471 233 451 217 q 496 271 490 248 l 597 644 q 599 659 599 652 q 591 683 599 673 q 560 699 580 699 z "},"E":{"ha":678,"x_min":47,"x_max":876,"o":"m 238 699 l 300 929 l 876 929 l 814 699 l 238 699 m 209 590 l 718 590 l 656 359 l 418 359 l 380 217 l 686 217 l 624 -14 l 47 -14 l 209 590 z "},"F":{"ha":678,"x_min":47,"x_max":876,"o":"m 718 590 l 656 359 l 418 359 l 319 -14 l 47 -14 l 209 590 l 718 590 m 238 699 l 300 929 l 876 929 l 814 699 l 238 699 z "},"G":{"ha":746,"x_min":94,"x_max":944,"o":"m 853 590 l 745 186 q 648 45 723 104 q 488 -14 574 -14 l 251 -14 q 122 45 165 -14 q 94 134 94 84 q 101 186 94 159 l 246 729 q 343 870 268 811 q 503 929 418 929 l 944 929 l 882 699 l 560 699 q 521 683 541 699 q 495 644 501 667 l 395 271 q 393 256 393 263 q 400 233 393 243 q 431 217 412 217 q 471 233 451 217 q 496 271 490 248 l 520 359 l 452 359 l 514 590 l 853 590 z "},"H":{"ha":746,"x_min":47,"x_max":944,"o":"m 414 342 l 319 -14 l 47 -14 l 300 929 l 571 929 l 480 590 l 582 590 l 673 929 l 944 929 l 692 -14 l 420 -14 l 515 342 l 414 342 z "},"I":{"ha":373,"x_min":47,"x_max":571,"o":"m 571 929 l 319 -14 l 47 -14 l 300 929 l 571 929 z "},"J":{"ha":509,"x_min":47,"x_max":707,"o":"m 435 929 l 707 929 l 508 186 q 411 45 486 104 q 251 -14 336 -14 l 47 -14 l 109 217 l 194 217 q 233 233 214 217 q 259 271 253 248 l 435 929 z "},"K":{"ha":814,"x_min":47,"x_max":1012,"o":"m 524 755 l 657 857 q 744 910 702 892 q 859 929 787 929 l 1012 929 l 950 699 l 238 699 l 300 929 l 570 929 l 524 755 m 418 359 l 319 -14 l 47 -14 l 209 590 l 497 590 q 686 481 643 590 l 872 -14 l 562 -14 l 442 359 l 418 359 z "},"L":{"ha":678,"x_min":47,"x_max":686,"o":"m 300 929 l 571 929 l 380 217 l 686 217 l 624 -14 l 47 -14 l 300 929 z "},"M":{"ha":983,"x_min":47,"x_max":1135,"o":"m 834 644 q 836 659 836 652 q 829 683 836 673 q 798 699 817 699 l 238 699 l 300 929 l 978 929 q 1107 870 1063 929 q 1135 781 1135 831 q 1128 729 1135 757 l 929 -14 l 658 -14 l 834 644 m 624 -14 l 353 -14 l 514 590 l 785 590 l 624 -14 m 319 -14 l 47 -14 l 209 590 l 480 590 l 319 -14 z "},"N":{"ha":746,"x_min":47,"x_max":898,"o":"m 597 644 q 599 659 599 652 q 591 683 599 673 q 560 699 580 699 l 238 699 l 300 929 l 741 929 q 869 870 826 929 q 898 781 898 831 q 890 729 898 757 l 692 -14 l 420 -14 l 597 644 m 319 -14 l 47 -14 l 209 590 l 480 590 l 319 -14 z "},"O":{"ha":746,"x_min":94,"x_max":898,"o":"m 251 -14 q 122 45 165 -14 q 94 134 94 84 q 101 186 94 159 l 246 729 q 343 870 268 811 q 503 929 418 929 l 741 929 q 869 870 826 929 q 898 781 898 831 q 890 729 898 757 l 745 186 q 648 45 723 104 q 488 -14 574 -14 l 251 -14 m 395 271 q 393 256 393 263 q 400 233 393 243 q 431 217 412 217 q 471 233 451 217 q 496 271 490 248 l 597 644 q 599 659 599 652 q 591 683 599 673 q 560 699 580 699 q 521 683 541 699 q 495 644 501 667 l 395 271 z "},"P":{"ha":746,"x_min":47,"x_max":898,"o":"m 238 699 l 300 929 l 741 929 q 869 870 826 929 q 898 781 898 831 q 890 729 898 757 l 845 559 q 748 418 823 477 q 588 359 673 359 l 418 359 l 319 -14 l 47 -14 l 209 590 l 531 590 q 570 606 551 590 q 597 644 590 621 q 599 659 599 652 q 591 683 599 673 q 560 699 580 699 l 238 699 z "},"Q":{"ha":746,"x_min":94,"x_max":898,"o":"m 395 271 q 393 256 393 263 q 400 233 393 243 q 431 217 412 217 q 471 233 451 217 q 496 271 490 248 l 597 644 q 599 659 599 652 q 591 683 599 673 q 560 699 580 699 q 521 683 541 699 q 495 644 501 667 l 395 271 m 370 -14 l 251 -14 q 122 45 165 -14 q 94 134 94 84 q 101 186 94 159 l 246 729 q 343 870 268 811 q 503 929 418 929 l 741 929 q 869 870 826 929 q 898 781 898 831 q 890 729 898 757 l 732 136 q 679 51 718 85 q 692 3 692 31 q 686 -34 692 -14 l 655 -149 l 384 -149 l 406 -68 q 408 -52 408 -60 q 401 -29 408 -39 q 370 -14 389 -14 z "},"R":{"ha":746,"x_min":47,"x_max":898,"o":"m 47 -14 l 209 590 l 582 590 l 597 644 q 599 659 599 652 q 591 683 599 673 q 560 699 580 699 l 238 699 l 300 929 l 741 929 q 869 870 826 929 q 898 781 898 831 q 890 729 898 757 l 831 509 q 749 407 812 438 q 783 342 783 385 q 777 305 783 325 l 692 -14 l 420 -14 l 506 305 q 508 320 508 313 q 500 344 508 334 q 469 359 489 359 l 418 359 l 319 -14 l 47 -14 z "},"S":{"ha":746,"x_min":47,"x_max":808,"o":"m 469 359 l 435 359 q 254 444 315 359 q 213 568 213 498 q 224 644 213 604 q 361 845 255 762 q 588 929 467 929 l 808 929 l 747 699 l 560 699 q 521 683 541 699 q 495 644 501 667 q 492 628 492 635 q 500 606 492 615 q 531 590 511 590 l 565 590 q 747 507 686 590 q 788 380 788 451 q 777 305 788 345 l 768 271 q 630 70 736 154 q 404 -14 524 -14 l 47 -14 l 109 217 l 431 217 q 471 233 451 217 q 496 271 490 248 l 506 305 q 508 320 508 313 q 500 344 508 334 q 469 359 489 359 z "},"T":{"ha":712,"x_min":217,"x_max":910,"o":"m 650 590 l 488 -14 l 217 -14 l 378 590 l 650 590 m 238 699 l 300 929 l 910 929 l 848 699 l 238 699 z "},"U":{"ha":746,"x_min":94,"x_max":944,"o":"m 673 929 l 944 929 l 745 186 q 648 45 723 104 q 488 -14 574 -14 l 251 -14 q 122 45 165 -14 q 94 134 94 84 q 101 186 94 159 l 300 929 l 571 929 l 395 271 q 393 256 393 263 q 400 233 393 243 q 431 217 412 217 q 471 233 451 217 q 496 271 490 248 l 673 929 z "},"V":{"ha":814,"x_min":226,"x_max":1049,"o":"m 509 382 l 777 929 l 1049 929 l 587 -14 l 336 -14 q 226 73 226 -14 l 226 83 l 262 929 l 534 929 l 509 382 z "},"W":{"ha":1356,"x_min":226,"x_max":1592,"o":"m 781 382 l 587 -14 l 336 -14 q 226 73 226 -14 l 226 83 l 262 929 l 534 929 l 509 382 l 777 929 l 1077 929 l 1052 382 l 1320 929 l 1592 929 l 1130 -14 l 878 -14 q 768 73 768 -14 l 768 83 l 781 382 z "},"X":{"ha":746,"x_min":14,"x_max":978,"o":"m 359 459 l 294 929 l 566 929 l 585 792 l 614 836 q 791 929 677 929 l 978 929 l 916 699 l 814 699 q 769 658 795 699 l 633 457 l 698 -14 l 425 -14 l 406 123 l 377 81 q 200 -14 314 -14 l 14 -14 l 75 217 l 177 217 q 222 258 196 217 l 359 459 z "},"Y":{"ha":746,"x_min":193,"x_max":944,"o":"m 531 590 q 570 606 551 590 q 597 644 590 621 l 673 929 l 944 929 l 845 559 q 748 418 823 477 q 605 359 673 359 l 505 -14 l 234 -14 l 334 359 q 222 418 265 359 q 193 507 193 458 q 201 559 193 532 l 300 929 l 571 929 l 495 644 q 492 628 492 635 q 500 606 492 615 q 531 590 511 590 z "},"Z":{"ha":678,"x_min":47,"x_max":876,"o":"m 532 699 l 238 699 l 300 929 l 876 929 l 808 675 l 391 217 l 686 217 l 624 -14 l 47 -14 l 115 241 l 532 699 z "},"[":{"ha":509,"x_min":29,"x_max":725,"o":"m 362 149 l 498 149 l 436 -81 l 29 -81 l 318 997 l 725 997 l 663 766 l 528 766 l 362 149 z "},"\\":{"ha":746,"x_min":294,"x_max":698,"o":"m 294 929 l 566 929 l 698 -14 l 425 -14 l 294 929 z "},"]":{"ha":509,"x_min":29,"x_max":725,"o":"m 392 766 l 256 766 l 318 997 l 725 997 l 436 -81 l 29 -81 l 91 149 l 227 149 l 392 766 z "},"^":{"ha":678,"x_min":298,"x_max":899,"o":"m 610 1010 l 576 970 l 298 970 l 559 1234 l 781 1234 l 899 970 l 622 970 l 610 1010 z "},"_":{"ha":814,"x_min":-75,"x_max":732,"o":"m -14 14 l 732 14 l 671 -217 l -75 -217 l -14 14 z "},"`":{"ha":610,"x_min":357,"x_max":829,"o":"m 357 1234 l 749 1234 l 829 970 l 626 970 l 357 1234 z "},"a":{"ha":746,"x_min":105,"x_max":844,"o":"m 408 258 q 395 252 402 258 q 386 237 389 247 q 385 231 385 233 q 387 222 385 226 q 397 217 391 217 l 482 217 l 493 258 l 408 258 m 551 488 q 549 490 550 489 q 540 495 546 495 l 319 495 l 380 725 l 686 726 q 815 667 772 726 q 844 578 844 627 q 836 526 844 553 l 692 -14 l 302 -14 q 141 60 195 -14 q 105 171 105 109 q 115 237 105 202 q 236 414 142 340 q 436 488 330 488 l 551 488 z "},"b":{"ha":746,"x_min":47,"x_max":844,"o":"m 47 -14 l 300 929 l 571 929 l 517 726 l 686 726 q 815 667 772 726 q 844 578 844 627 q 836 526 844 553 l 745 186 q 648 45 723 104 q 488 -14 574 -14 l 47 -14 m 380 217 l 431 217 q 471 233 451 217 q 496 271 490 248 l 542 441 q 544 456 544 449 q 537 479 544 469 q 506 495 526 495 q 466 479 486 495 q 440 441 446 464 l 380 217 z "},"c":{"ha":678,"x_min":94,"x_max":822,"o":"m 431 217 l 686 217 l 624 -14 l 251 -14 q 122 45 165 -14 q 94 134 94 84 q 101 186 94 159 l 192 526 q 289 667 214 608 q 449 726 363 726 l 822 726 l 760 495 l 506 495 q 466 479 486 495 q 440 441 446 464 l 395 271 q 393 256 393 263 q 400 233 393 243 q 431 217 412 217 z "},"d":{"ha":746,"x_min":94,"x_max":944,"o":"m 251 -14 q 122 45 165 -14 q 94 134 94 84 q 101 186 94 159 l 192 526 q 289 667 214 608 q 449 726 363 726 l 618 726 l 673 929 l 944 929 l 692 -14 l 251 -14 m 542 441 q 544 456 544 449 q 537 479 544 469 q 506 495 526 495 q 466 479 486 495 q 440 441 446 464 l 395 271 q 393 256 393 263 q 400 233 393 243 q 431 217 412 217 l 482 217 l 542 441 z "},"e":{"ha":746,"x_min":94,"x_max":844,"o":"m 546 454 l 546 458 q 537 479 546 467 q 506 495 526 495 q 466 479 486 495 q 444 454 446 464 l 546 454 m 386 224 q 387 222 387 223 q 397 217 391 217 l 686 217 l 624 -14 l 251 -14 q 122 45 165 -14 q 94 134 94 84 q 101 186 94 159 l 192 526 q 289 667 214 608 q 449 726 363 726 l 686 726 q 815 667 772 726 q 844 578 844 627 q 836 526 844 553 l 755 224 l 386 224 z "},"f":{"ha":610,"x_min":115,"x_max":808,"o":"m 548 590 l 718 590 l 656 359 l 486 359 l 387 -14 l 115 -14 l 215 359 l 147 359 l 209 590 l 277 590 l 314 729 q 411 870 336 811 q 571 929 486 929 l 808 929 l 747 699 l 628 699 q 589 683 608 699 q 563 644 569 667 l 548 590 z "},"g":{"ha":746,"x_min":94,"x_max":890,"o":"m 395 271 q 393 256 393 263 q 400 233 393 243 q 431 217 412 217 q 471 233 451 217 q 496 271 490 248 l 557 495 l 506 495 q 466 479 486 495 q 440 441 446 464 l 395 271 m 420 -14 l 251 -14 q 122 45 165 -14 q 94 134 94 84 q 101 186 94 159 l 192 526 q 289 667 214 608 q 449 726 363 726 l 890 726 l 673 -85 q 575 -226 650 -167 q 415 -285 500 -285 l 110 -285 l 172 -54 l 359 -54 q 398 -39 378 -54 q 420 -14 418 -23 z "},"h":{"ha":746,"x_min":47,"x_max":844,"o":"m 517 726 l 686 726 q 815 667 772 726 q 844 578 844 627 q 836 526 844 553 l 692 -14 l 420 -14 l 542 441 q 544 456 544 449 q 537 479 544 469 q 506 495 526 495 l 455 495 l 319 -14 l 47 -14 l 300 929 l 571 929 l 517 726 z "},"i":{"ha":373,"x_min":47,"x_max":571,"o":"m 245 726 l 517 726 l 319 -14 l 47 -14 l 245 726 m 300 929 l 571 929 l 528 766 l 256 766 l 300 929 z "},"j":{"ha":373,"x_min":-161,"x_max":571,"o":"m 245 726 l 517 726 l 300 -85 q 202 -226 277 -167 q 42 -285 127 -285 l -161 -285 l -99 -54 l -14 -54 q 25 -39 5 -54 q 51 0 45 -23 l 245 726 m 571 929 l 528 766 l 256 766 l 300 929 l 571 929 z "},"k":{"ha":746,"x_min":47,"x_max":890,"o":"m 890 726 l 828 495 l 671 495 l 613 437 l 770 -14 l 495 -14 l 409 233 l 376 200 l 319 -14 l 47 -14 l 300 929 l 571 929 l 477 577 l 549 651 q 703 726 626 726 l 890 726 z "},"l":{"ha":339,"x_min":-20,"x_max":503,"o":"m 503 929 l 251 -14 l -20 -14 l 232 929 l 503 929 z "},"m":{"ha":983,"x_min":47,"x_max":1081,"o":"m 924 726 q 1053 667 1009 726 q 1081 578 1081 627 q 1074 526 1081 553 l 929 -14 l 658 -14 l 779 441 q 781 456 781 449 q 774 479 781 469 q 760 495 763 495 l 624 -14 l 353 -14 l 489 495 l 455 495 l 319 -14 l 47 -14 l 245 726 l 924 726 z "},"n":{"ha":746,"x_min":47,"x_max":844,"o":"m 319 -14 l 47 -14 l 245 726 l 686 726 q 815 667 772 726 q 844 578 844 627 q 836 526 844 553 l 692 -14 l 420 -14 l 542 441 q 544 456 544 449 q 537 479 544 469 q 506 495 526 495 l 455 495 l 319 -14 z "},"o":{"ha":746,"x_min":94,"x_max":844,"o":"m 251 -14 q 122 45 165 -14 q 94 134 94 84 q 101 186 94 159 l 192 526 q 289 667 214 608 q 449 726 363 726 l 686 726 q 815 667 772 726 q 844 578 844 627 q 836 526 844 553 l 745 186 q 648 45 723 104 q 488 -14 574 -14 l 251 -14 m 395 271 q 393 256 393 263 q 400 233 393 243 q 431 217 412 217 q 471 233 451 217 q 496 271 490 248 l 542 441 q 544 456 544 449 q 537 479 544 469 q 506 495 526 495 q 466 479 486 495 q 440 441 446 464 l 395 271 z "},"p":{"ha":746,"x_min":-26,"x_max":844,"o":"m 686 726 q 815 667 772 726 q 844 578 844 627 q 836 526 844 553 l 745 186 q 648 45 723 104 q 488 -14 574 -14 l 319 -14 l 245 -285 l -26 -285 l 245 726 l 686 726 m 395 271 q 393 256 393 263 q 400 233 393 243 q 431 217 412 217 q 471 233 451 217 q 496 271 490 248 l 542 441 q 544 456 544 449 q 537 479 544 469 q 506 495 526 495 l 455 495 l 395 271 z "},"q":{"ha":746,"x_min":94,"x_max":890,"o":"m 890 726 l 618 -285 l 347 -285 l 420 -14 l 251 -14 q 122 45 165 -14 q 94 134 94 84 q 101 186 94 159 l 192 526 q 289 667 214 608 q 449 726 363 726 l 890 726 m 557 495 l 506 495 q 466 479 486 495 q 440 441 446 464 l 395 271 q 393 256 393 263 q 400 233 393 243 q 431 217 412 217 q 471 233 451 217 q 496 271 490 248 l 557 495 z "},"r":{"ha":746,"x_min":47,"x_max":844,"o":"m 319 -14 l 47 -14 l 245 726 l 686 726 q 815 667 772 726 q 844 578 844 627 q 836 526 844 553 l 810 427 l 538 427 q 543 456 543 444 q 537 479 543 471 q 506 495 526 495 l 455 495 l 319 -14 z "},"s":{"ha":746,"x_min":47,"x_max":766,"o":"m 353 241 q 206 312 256 243 q 172 419 172 359 q 180 483 172 450 q 298 654 207 583 q 491 726 389 726 l 754 726 l 692 495 l 464 495 q 457 492 461 495 q 452 484 453 489 q 451 479 451 481 q 452 475 451 476 q 457 471 454 471 l 576 471 q 731 400 678 471 q 766 292 766 352 q 757 229 766 262 q 639 58 730 130 q 446 -14 549 -14 l 47 -14 l 109 217 l 465 217 l 464 214 q 480 220 477 218 q 486 229 484 223 q 486 233 486 231 q 485 237 486 236 q 472 244 483 240 l 471 241 l 353 241 z "},"t":{"ha":610,"x_min":161,"x_max":754,"o":"m 463 271 q 460 256 460 263 q 468 233 460 243 q 499 217 479 217 l 618 217 l 556 -14 l 319 -14 q 190 45 233 -14 q 161 134 161 84 q 169 186 161 159 l 252 496 l 184 495 l 245 726 l 313 726 l 368 929 l 639 929 l 585 726 l 754 726 l 692 495 l 523 495 l 463 271 z "},"u":{"ha":746,"x_min":94,"x_max":890,"o":"m 618 726 l 890 726 l 692 -14 l 251 -14 q 122 45 165 -14 q 94 134 94 84 q 101 186 94 159 l 245 726 l 517 726 l 395 271 q 393 256 393 263 q 400 233 393 243 q 431 217 412 217 l 482 217 l 618 726 z "},"v":{"ha":746,"x_min":187,"x_max":927,"o":"m 285 -14 q 187 64 187 -14 l 187 65 l 208 726 l 480 726 l 469 357 l 655 726 l 927 726 l 553 -14 l 285 -14 z "},"w":{"ha":1221,"x_min":187,"x_max":1402,"o":"m 667 211 l 553 -14 l 285 -14 q 187 64 187 -14 l 187 65 l 208 726 l 480 726 l 469 357 l 655 726 l 955 726 l 943 357 l 1130 726 l 1402 726 l 1028 -14 l 760 -14 q 662 64 662 -14 l 662 65 l 667 211 z "},"x":{"ha":746,"x_min":14,"x_max":924,"o":"m 331 356 l 201 726 l 476 726 l 528 579 l 605 667 q 737 726 659 726 l 924 726 l 862 495 l 777 495 q 674 435 729 495 l 606 357 l 736 -14 l 461 -14 l 410 133 l 332 45 q 200 -14 278 -14 l 14 -14 l 75 217 l 160 217 q 263 278 208 217 l 331 356 z "},"y":{"ha":746,"x_min":94,"x_max":890,"o":"m 420 -14 l 251 -14 q 122 45 165 -14 q 94 134 94 84 q 101 186 94 159 l 245 726 l 517 726 l 395 271 q 393 256 393 263 q 400 233 393 243 q 431 217 412 217 l 482 217 l 618 726 l 890 726 l 673 -85 q 575 -226 650 -167 q 415 -285 500 -285 l 110 -285 l 172 -54 l 359 -54 q 398 -39 378 -54 q 420 -14 418 -23 z "},"z":{"ha":746,"x_min":47,"x_max":890,"o":"m 499 495 l 184 495 l 245 726 l 890 726 l 821 469 l 438 217 l 753 217 l 692 -14 l 47 -14 l 116 243 l 499 495 z "},"{":{"ha":610,"x_min":147,"x_max":827,"o":"m 524 373 l 478 203 q 476 189 476 195 q 484 165 476 175 q 515 149 495 149 l 600 149 l 538 -81 l 334 -81 q 205 -22 249 -81 q 177 66 177 16 q 184 119 177 91 l 235 305 q 237 320 237 313 q 229 344 237 334 q 198 359 218 359 l 147 359 l 209 590 l 260 590 q 299 606 279 590 q 326 644 319 621 l 366 797 q 463 938 388 879 q 623 997 538 997 l 827 997 l 765 766 l 680 766 q 641 751 661 766 q 614 712 621 735 l 578 576 q 496 475 559 506 q 529 410 529 452 q 524 373 529 393 z "},"|":{"ha":373,"x_min":29,"x_max":589,"o":"m 300 -81 l 29 -81 l 318 997 l 589 997 l 300 -81 z "},"}":{"ha":610,"x_min":29,"x_max":718,"o":"m 286 373 q 370 475 305 444 q 336 539 336 497 q 341 576 336 556 l 377 712 q 379 728 379 720 q 372 751 379 741 q 341 766 361 766 l 256 766 l 318 997 l 522 997 q 650 938 607 997 q 679 849 679 899 q 671 797 679 825 l 631 644 q 628 628 628 635 q 635 606 628 615 q 667 590 647 590 l 718 590 l 656 359 l 605 359 q 566 344 585 359 q 540 305 546 328 l 490 119 q 393 -22 467 37 q 233 -81 318 -81 l 29 -81 l 91 149 l 176 149 q 215 165 195 149 q 241 203 235 180 l 286 373 z "},"~":{"ha":746,"x_min":321,"x_max":1016,"o":"m 512 1196 q 602 1234 560 1234 q 738 1187 640 1234 l 801 1237 l 1016 1158 l 825 1008 q 734 970 777 970 q 599 1017 696 970 l 536 967 l 321 1046 l 512 1196 z "},"¡":{"ha":373,"x_min":47,"x_max":571,"o":"m 509 699 l 238 699 l 300 929 l 571 929 l 509 699 m 498 658 l 319 -14 l 47 -14 l 227 658 l 498 658 z "},"¢":{"ha":678,"x_min":111,"x_max":822,"o":"m 506 54 l 488 -14 l 217 -14 l 235 56 q 140 115 178 61 q 111 202 111 153 q 119 254 111 227 l 192 526 q 290 667 214 608 q 414 724 355 719 l 433 793 l 705 793 l 686 726 l 822 726 l 760 495 l 506 495 q 466 479 486 495 q 440 441 446 464 l 413 339 q 411 324 411 331 q 418 300 411 311 q 450 285 430 285 l 704 285 l 642 54 l 506 54 z "},"£":{"ha":678,"x_min":47,"x_max":808,"o":"m 177 217 l 215 359 l 147 359 l 209 590 l 277 590 l 314 729 q 411 870 336 811 q 571 929 486 929 l 808 929 l 747 699 l 628 699 q 589 683 608 699 q 563 644 569 667 l 548 590 l 718 590 l 656 359 l 486 359 l 448 217 l 686 217 l 624 -14 l 47 -14 l 109 217 l 177 217 z "},"¤":{"ha":746,"x_min":14,"x_max":978,"o":"m 435 424 q 433 409 433 416 q 441 385 433 395 q 472 370 452 370 q 511 385 492 370 q 537 424 531 401 l 555 492 q 557 507 557 500 q 551 530 557 520 q 519 546 539 546 q 480 530 500 546 q 454 492 460 515 l 435 424 m 841 699 q 857 629 857 667 q 850 576 857 604 l 786 339 q 689 198 764 257 q 671 184 675 188 l 698 -14 l 425 -14 l 406 124 l 377 81 q 200 -14 314 -14 l 14 -14 l 75 217 l 151 217 q 134 286 134 248 q 142 339 134 311 l 205 576 q 303 718 227 659 q 321 732 316 728 l 294 929 l 566 929 l 585 791 l 614 836 q 791 929 677 929 l 978 929 l 916 699 l 841 699 z "},"¥":{"ha":746,"x_min":133,"x_max":944,"o":"m 787 556 l 777 556 l 715 326 l 596 326 l 585 285 l 704 285 l 642 54 l 523 54 l 505 -14 l 234 -14 l 252 54 l 133 54 l 195 285 l 314 285 l 325 326 l 206 326 l 268 556 l 258 556 q 230 642 230 594 q 237 695 230 667 l 300 929 l 571 929 l 531 780 q 529 765 529 772 q 536 741 529 751 q 568 726 548 726 q 607 741 587 726 q 633 780 627 757 l 673 929 l 944 929 l 882 695 q 787 556 860 614 z "},"¦":{"ha":373,"x_min":29,"x_max":589,"o":"m 435 420 l 300 -81 l 29 -81 l 163 420 l 435 420 m 193 529 l 318 997 l 589 997 l 464 529 l 193 529 z "},"§":{"ha":746,"x_min":29,"x_max":857,"o":"m 435 424 q 433 409 433 416 q 441 385 433 395 q 472 370 452 370 q 511 385 492 370 q 537 424 531 401 l 555 492 q 557 507 557 500 q 551 530 557 520 q 519 546 539 546 q 480 530 500 546 q 454 492 460 515 l 435 424 m 764 766 q 828 718 803 752 q 857 629 857 678 q 850 576 857 604 l 786 339 q 781 323 784 331 q 777 305 780 315 l 749 203 q 612 2 718 86 q 385 -81 506 -81 l 29 -81 l 91 149 l 228 149 q 163 198 189 163 q 134 286 134 237 q 142 339 134 311 l 205 576 q 216 607 210 593 q 224 644 218 625 l 241 712 q 379 913 273 829 q 606 997 486 997 l 827 997 l 765 766 l 764 766 z "},"¨":{"ha":678,"x_min":320,"x_max":958,"o":"m 687 1234 l 958 1234 l 897 1004 l 625 1004 l 687 1234 m 382 1234 l 653 1234 l 591 1004 l 320 1004 l 382 1234 z "},"©":{"ha":610,"x_min":227,"x_max":765,"o":"m 654 929 q 565 970 620 970 q 437 916 501 970 q 495 929 465 929 l 654 929 m 356 822 q 309 712 326 772 q 296 623 296 664 q 297 602 296 612 l 356 822 m 328 509 q 427 454 363 454 q 538 495 482 454 l 379 495 q 328 509 349 495 m 585 536 q 682 712 654 608 q 696 804 696 762 q 679 888 696 850 l 655 800 l 519 800 q 507 795 514 800 q 497 780 500 789 l 461 644 q 460 638 460 641 q 463 630 460 633 q 473 624 467 624 l 608 624 l 585 536 m 737 937 q 765 816 765 882 q 750 712 765 767 q 617 488 715 582 q 410 393 518 393 q 255 488 302 393 q 227 609 227 543 q 241 712 227 657 q 375 937 277 842 q 581 1031 473 1031 q 737 937 689 1031 z "},"ª":{"ha":1119,"x_min":0,"x_max":1017,"o":"m 136 0 q 0 136 0 0 l 0 882 q 136 1017 0 1017 l 882 1017 q 1017 882 1017 1017 l 1017 136 q 882 0 1017 0 l 136 0 m 882 17 q 1000 136 1000 17 l 1000 882 q 882 1000 1000 1000 l 136 1000 q 17 882 18 1000 l 17 136 q 136 17 18 17 l 882 17 z "},"«":{"ha":1017,"x_min":182,"x_max":1198,"o":"m 182 509 l 544 793 l 859 793 l 497 509 l 705 224 l 391 224 l 182 509 m 522 509 l 883 793 l 1198 793 l 836 509 l 1044 224 l 730 224 l 522 509 z "},"¬":{"ha":1119,"x_min":0,"x_max":1017,"o":"m 136 0 q 0 136 0 0 l 0 882 q 136 1017 0 1017 l 882 1017 q 1017 882 1017 1017 l 1017 136 q 882 0 1017 0 l 136 0 m 882 17 q 1000 136 1000 17 l 1000 882 q 882 1000 1000 1000 l 136 1000 q 17 882 18 1000 l 17 136 q 136 17 18 17 l 882 17 z "},"®":{"ha":746,"x_min":227,"x_max":765,"o":"m 664 916 q 565 970 628 970 q 451 929 496 970 l 614 929 q 664 916 644 929 m 335 495 q 427 454 358 454 q 541 495 496 454 l 455 495 l 490 627 q 492 634 492 631 q 489 642 492 639 q 479 648 485 648 l 462 648 l 421 495 l 335 495 m 360 838 q 309 712 336 812 q 290 606 290 640 q 293 586 290 593 l 344 777 l 530 777 l 531 780 q 532 787 532 784 q 530 795 532 791 q 519 800 526 800 l 350 800 l 360 838 m 695 822 l 670 729 q 635 678 660 690 q 646 652 646 670 q 643 627 646 641 l 632 586 q 682 712 656 612 q 696 804 696 762 q 695 822 696 813 m 750 712 q 617 488 715 582 q 410 393 518 393 q 255 488 302 393 q 227 609 227 543 q 241 712 227 657 q 375 937 277 842 q 581 1031 473 1031 q 737 937 689 1031 q 765 816 765 882 q 750 712 765 767 z "},"¯":{"ha":1119,"x_min":0,"x_max":1017,"o":"m 136 0 q 0 136 0 0 l 0 882 q 136 1017 0 1017 l 882 1017 q 1017 882 1017 1017 l 1017 136 q 882 0 1017 0 l 136 0 m 882 17 q 1000 136 1000 17 l 1000 882 q 882 1000 1000 1000 l 136 1000 q 17 882 18 1000 l 17 136 q 136 17 18 17 l 882 17 z "},"°":{"ha":1119,"x_min":0,"x_max":1017,"o":"m 136 0 q 0 136 0 0 l 0 882 q 136 1017 0 1017 l 882 1017 q 1017 882 1017 1017 l 1017 136 q 882 0 1017 0 l 136 0 m 882 17 q 1000 136 1000 17 l 1000 882 q 882 1000 1000 1000 l 136 1000 q 17 882 18 1000 l 17 136 q 136 17 18 17 l 882 17 z "},"±":{"ha":1119,"x_min":0,"x_max":1017,"o":"m 136 0 q 0 136 0 0 l 0 882 q 136 1017 0 1017 l 882 1017 q 1017 882 1017 1017 l 1017 136 q 882 0 1017 0 l 136 0 m 882 17 q 1000 136 1000 17 l 1000 882 q 882 1000 1000 1000 l 136 1000 q 17 882 18 1000 l 17 136 q 136 17 18 17 l 882 17 z "},"²":{"ha":1119,"x_min":0,"x_max":1017,"o":"m 136 0 q 0 136 0 0 l 0 882 q 136 1017 0 1017 l 882 1017 q 1017 882 1017 1017 l 1017 136 q 882 0 1017 0 l 136 0 m 882 17 q 1000 136 1000 17 l 1000 882 q 882 1000 1000 1000 l 136 1000 q 17 882 18 1000 l 17 136 q 136 17 18 17 l 882 17 z "},"³":{"ha":1119,"x_min":0,"x_max":1017,"o":"m 136 0 q 0 136 0 0 l 0 882 q 136 1017 0 1017 l 882 1017 q 1017 882 1017 1017 l 1017 136 q 882 0 1017 0 l 136 0 m 882 17 q 1000 136 1000 17 l 1000 882 q 882 1000 1000 1000 l 136 1000 q 17 882 18 1000 l 17 136 q 136 17 18 17 l 882 17 z "},"´":{"ha":610,"x_min":301,"x_max":915,"o":"m 504 970 l 301 970 l 524 1234 l 915 1234 l 504 970 z "},"µ":{"ha":746,"x_min":-26,"x_max":890,"o":"m 395 271 q 393 256 393 263 q 400 233 393 243 q 431 217 412 217 l 482 217 l 618 726 l 890 726 l 692 -14 l 319 -14 l 245 -285 l -26 -285 l 245 726 l 517 726 l 395 271 z "},"¶":{"ha":1119,"x_min":0,"x_max":1017,"o":"m 136 0 q 0 136 0 0 l 0 882 q 136 1017 0 1017 l 882 1017 q 1017 882 1017 1017 l 1017 136 q 882 0 1017 0 l 136 0 m 882 17 q 1000 136 1000 17 l 1000 882 q 882 1000 1000 1000 l 136 1000 q 17 882 18 1000 l 17 136 q 136 17 18 17 l 882 17 z "},"·":{"ha":373,"x_min":147,"x_max":480,"o":"m 209 590 l 480 590 l 418 359 l 147 359 l 209 590 z "},"¸":{"ha":509,"x_min":-26,"x_max":479,"o":"m 208 81 l 479 81 l 439 -68 q 161 -285 381 -285 l -26 -285 l 35 -54 l 121 -54 q 186 0 172 -54 l 208 81 z "},"¹":{"ha":1119,"x_min":0,"x_max":1017,"o":"m 136 0 q 0 136 0 0 l 0 882 q 136 1017 0 1017 l 882 1017 q 1017 882 1017 1017 l 1017 136 q 882 0 1017 0 l 136 0 m 882 17 q 1000 136 1000 17 l 1000 882 q 882 1000 1000 1000 l 136 1000 q 17 882 18 1000 l 17 136 q 136 17 18 17 l 882 17 z "},"º":{"ha":1119,"x_min":0,"x_max":1017,"o":"m 136 0 q 0 136 0 0 l 0 882 q 136 1017 0 1017 l 882 1017 q 1017 882 1017 1017 l 1017 136 q 882 0 1017 0 l 136 0 m 882 17 q 1000 136 1000 17 l 1000 882 q 882 1000 1000 1000 l 136 1000 q 17 882 18 1000 l 17 136 q 136 17 18 17 l 882 17 z "},"»":{"ha":1017,"x_min":92,"x_max":1107,"o":"m 746 224 l 431 224 l 793 509 l 585 793 l 899 793 l 1107 509 l 746 224 m 407 224 l 92 224 l 454 509 l 245 793 l 560 793 l 768 509 l 407 224 z "},"¼":{"ha":1119,"x_min":0,"x_max":1017,"o":"m 136 0 q 0 136 0 0 l 0 882 q 136 1017 0 1017 l 882 1017 q 1017 882 1017 1017 l 1017 136 q 882 0 1017 0 l 136 0 m 882 17 q 1000 136 1000 17 l 1000 882 q 882 1000 1000 1000 l 136 1000 q 17 882 18 1000 l 17 136 q 136 17 18 17 l 882 17 z "},"½":{"ha":1119,"x_min":0,"x_max":1017,"o":"m 136 0 q 0 136 0 0 l 0 882 q 136 1017 0 1017 l 882 1017 q 1017 882 1017 1017 l 1017 136 q 882 0 1017 0 l 136 0 m 882 17 q 1000 136 1000 17 l 1000 882 q 882 1000 1000 1000 l 136 1000 q 17 882 18 1000 l 17 136 q 136 17 18 17 l 882 17 z "},"¾":{"ha":1119,"x_min":0,"x_max":1017,"o":"m 136 0 q 0 136 0 0 l 0 882 q 136 1017 0 1017 l 882 1017 q 1017 882 1017 1017 l 1017 136 q 882 0 1017 0 l 136 0 m 882 17 q 1000 136 1000 17 l 1000 882 q 882 1000 1000 1000 l 136 1000 q 17 882 18 1000 l 17 136 q 136 17 18 17 l 882 17 z "},"¿":{"ha":746,"x_min":113,"x_max":876,"o":"m 804 658 l 772 543 q 460 326 715 326 q 421 310 441 326 q 395 271 401 294 q 393 256 393 263 q 400 233 393 243 q 431 217 412 217 l 753 217 l 692 -14 l 336 -14 q 154 71 215 -14 q 113 196 113 125 q 123 271 113 232 q 261 472 155 389 q 488 556 368 556 q 511 576 505 556 l 532 658 l 804 658 m 543 699 l 605 929 l 876 929 l 814 699 l 543 699 z "},"À":{"ha":814,"x_min":10,"x_max":930,"o":"m 459 1234 l 850 1234 l 930 970 l 728 970 l 459 1234 m 542 516 l 395 217 l 535 217 l 542 516 m 543 590 l 546 699 l 238 699 l 300 929 l 724 929 q 833 842 833 929 l 833 833 l 797 -14 l 10 -14 l 306 590 l 543 590 z "},"Á":{"ha":814,"x_min":10,"x_max":1017,"o":"m 606 970 l 403 970 l 625 1234 l 1017 1234 l 606 970 m 542 516 l 395 217 l 535 217 l 542 516 m 543 590 l 546 699 l 238 699 l 300 929 l 724 929 q 833 842 833 929 l 833 833 l 797 -14 l 10 -14 l 306 590 l 543 590 z "},"Â":{"ha":814,"x_min":10,"x_max":967,"o":"m 677 1010 l 644 970 l 366 970 l 627 1234 l 849 1234 l 967 970 l 690 970 l 677 1010 m 542 516 l 395 217 l 535 217 l 542 516 m 543 590 l 546 699 l 238 699 l 300 929 l 724 929 q 833 842 833 929 l 833 833 l 797 -14 l 10 -14 l 306 590 l 543 590 z "},"Ã":{"ha":814,"x_min":10,"x_max":1050,"o":"m 546 1196 q 636 1234 594 1234 q 772 1187 674 1234 l 835 1237 l 1050 1158 l 859 1008 q 768 970 810 970 q 633 1017 730 970 l 570 967 l 355 1046 l 546 1196 m 542 516 l 395 217 l 535 217 l 542 516 m 543 590 l 546 699 l 238 699 l 300 929 l 724 929 q 833 842 833 929 l 833 833 l 797 -14 l 10 -14 l 306 590 l 543 590 z "},"Ä":{"ha":814,"x_min":10,"x_max":1026,"o":"m 755 1234 l 1026 1234 l 964 1004 l 693 1004 l 755 1234 m 450 1234 l 721 1234 l 659 1004 l 388 1004 l 450 1234 m 542 516 l 395 217 l 535 217 l 542 516 m 543 590 l 546 699 l 238 699 l 300 929 l 724 929 q 833 842 833 929 l 833 833 l 797 -14 l 10 -14 l 306 590 l 543 590 z "},"Å":{"ha":814,"x_min":10,"x_max":859,"o":"m 667 970 q 569 1008 603 970 q 545 1071 545 1036 q 549 1102 545 1086 q 619 1195 564 1156 q 738 1234 674 1234 q 836 1196 802 1234 q 859 1134 859 1168 q 854 1102 859 1118 q 785 1008 840 1047 q 667 970 730 970 m 542 516 l 395 217 l 535 217 l 542 516 m 543 590 l 546 699 l 238 699 l 300 929 l 724 929 q 833 842 833 929 l 833 833 l 797 -14 l 10 -14 l 306 590 l 543 590 z "},"Æ":{"ha":1119,"x_min":10,"x_max":1317,"o":"m 542 516 l 395 217 l 535 217 l 542 516 m 543 590 l 546 699 l 238 699 l 300 929 l 1317 929 l 1255 699 l 950 699 l 921 590 l 1158 590 l 1097 359 l 859 359 l 821 217 l 1126 217 l 1065 -14 l 10 -14 l 306 590 l 543 590 z "},"Ç":{"ha":678,"x_min":77,"x_max":876,"o":"m 286 -14 l 251 -14 q 122 45 165 -14 q 94 134 94 84 q 101 186 94 159 l 246 729 q 343 870 268 811 q 503 929 418 929 l 876 929 l 814 699 l 560 699 q 521 683 541 699 q 495 644 501 667 l 395 271 q 393 256 393 263 q 400 233 393 243 q 431 217 412 217 l 686 217 l 624 -14 l 557 -14 l 543 -68 q 264 -285 484 -285 l 77 -285 l 138 -54 l 224 -54 q 286 -14 275 -54 z "},"È":{"ha":678,"x_min":47,"x_max":876,"o":"m 238 699 l 300 929 l 876 929 l 814 699 l 238 699 m 209 590 l 718 590 l 656 359 l 418 359 l 380 217 l 686 217 l 624 -14 l 47 -14 l 209 590 m 391 1234 l 783 1234 l 863 970 l 660 970 l 391 1234 z "},"É":{"ha":678,"x_min":47,"x_max":949,"o":"m 238 699 l 300 929 l 876 929 l 814 699 l 238 699 m 209 590 l 718 590 l 656 359 l 418 359 l 380 217 l 686 217 l 624 -14 l 47 -14 l 209 590 m 538 970 l 335 970 l 557 1234 l 949 1234 l 538 970 z "},"Ê":{"ha":678,"x_min":47,"x_max":899,"o":"m 238 699 l 300 929 l 876 929 l 814 699 l 238 699 m 209 590 l 718 590 l 656 359 l 418 359 l 380 217 l 686 217 l 624 -14 l 47 -14 l 209 590 m 610 1010 l 576 970 l 298 970 l 559 1234 l 781 1234 l 899 970 l 622 970 l 610 1010 z "},"Ë":{"ha":678,"x_min":47,"x_max":958,"o":"m 238 699 l 300 929 l 876 929 l 814 699 l 238 699 m 209 590 l 718 590 l 656 359 l 418 359 l 380 217 l 686 217 l 624 -14 l 47 -14 l 209 590 m 687 1234 l 958 1234 l 897 1004 l 625 1004 l 687 1234 m 382 1234 l 653 1234 l 591 1004 l 320 1004 l 382 1234 z "},"Ì":{"ha":373,"x_min":47,"x_max":710,"o":"m 571 929 l 319 -14 l 47 -14 l 300 929 l 571 929 m 239 1234 l 630 1234 l 710 970 l 507 970 l 239 1234 z "},"Í":{"ha":373,"x_min":47,"x_max":796,"o":"m 571 929 l 319 -14 l 47 -14 l 300 929 l 571 929 m 385 970 l 182 970 l 405 1234 l 796 1234 l 385 970 z "},"Î":{"ha":373,"x_min":47,"x_max":747,"o":"m 571 929 l 319 -14 l 47 -14 l 300 929 l 571 929 m 457 1010 l 423 970 l 146 970 l 406 1234 l 629 1234 l 747 970 l 469 970 l 457 1010 z "},"Ï":{"ha":373,"x_min":47,"x_max":806,"o":"m 571 929 l 319 -14 l 47 -14 l 300 929 l 571 929 m 534 1234 l 806 1234 l 744 1004 l 473 1004 l 534 1234 m 229 1234 l 500 1234 l 439 1004 l 168 1004 l 229 1234 z "},"Ð":{"ha":814,"x_min":115,"x_max":966,"o":"m 486 359 l 448 217 l 499 217 q 538 233 519 217 q 564 271 558 248 l 665 644 q 667 659 667 652 q 659 683 667 673 q 628 699 648 699 l 306 699 l 368 929 l 808 929 q 937 870 894 929 q 966 781 966 831 q 958 729 966 757 l 813 186 q 716 45 791 104 q 556 -14 642 -14 l 115 -14 l 215 359 l 147 359 l 209 590 l 616 590 l 554 359 l 486 359 z "},"Ñ":{"ha":746,"x_min":47,"x_max":1016,"o":"m 597 644 q 599 659 599 652 q 591 683 599 673 q 560 699 580 699 l 238 699 l 300 929 l 741 929 q 869 870 826 929 q 898 781 898 831 q 890 729 898 757 l 692 -14 l 420 -14 l 597 644 m 319 -14 l 47 -14 l 209 590 l 480 590 l 319 -14 m 512 1196 q 602 1234 560 1234 q 738 1187 640 1234 l 801 1237 l 1016 1158 l 825 1008 q 734 970 777 970 q 599 1017 696 970 l 536 967 l 321 1046 l 512 1196 z "},"Ò":{"ha":746,"x_min":94,"x_max":898,"o":"m 251 -14 q 122 45 165 -14 q 94 134 94 84 q 101 186 94 159 l 246 729 q 343 870 268 811 q 503 929 418 929 l 741 929 q 869 870 826 929 q 898 781 898 831 q 890 729 898 757 l 745 186 q 648 45 723 104 q 488 -14 574 -14 l 251 -14 m 395 271 q 393 256 393 263 q 400 233 393 243 q 431 217 412 217 q 471 233 451 217 q 496 271 490 248 l 597 644 q 599 659 599 652 q 591 683 599 673 q 560 699 580 699 q 521 683 541 699 q 495 644 501 667 l 395 271 m 425 1234 l 817 1234 l 897 970 l 694 970 l 425 1234 z "},"Ó":{"ha":746,"x_min":94,"x_max":983,"o":"m 251 -14 q 122 45 165 -14 q 94 134 94 84 q 101 186 94 159 l 246 729 q 343 870 268 811 q 503 929 418 929 l 741 929 q 869 870 826 929 q 898 781 898 831 q 890 729 898 757 l 745 186 q 648 45 723 104 q 488 -14 574 -14 l 251 -14 m 395 271 q 393 256 393 263 q 400 233 393 243 q 431 217 412 217 q 471 233 451 217 q 496 271 490 248 l 597 644 q 599 659 599 652 q 591 683 599 673 q 560 699 580 699 q 521 683 541 699 q 495 644 501 667 l 395 271 m 572 970 l 369 970 l 591 1234 l 983 1234 l 572 970 z "},"Ô":{"ha":746,"x_min":94,"x_max":933,"o":"m 251 -14 q 122 45 165 -14 q 94 134 94 84 q 101 186 94 159 l 246 729 q 343 870 268 811 q 503 929 418 929 l 741 929 q 869 870 826 929 q 898 781 898 831 q 890 729 898 757 l 745 186 q 648 45 723 104 q 488 -14 574 -14 l 251 -14 m 395 271 q 393 256 393 263 q 400 233 393 243 q 431 217 412 217 q 471 233 451 217 q 496 271 490 248 l 597 644 q 599 659 599 652 q 591 683 599 673 q 560 699 580 699 q 521 683 541 699 q 495 644 501 667 l 395 271 m 644 1010 l 610 970 l 332 970 l 593 1234 l 815 1234 l 933 970 l 656 970 l 644 1010 z "},"Õ":{"ha":746,"x_min":94,"x_max":1016,"o":"m 251 -14 q 122 45 165 -14 q 94 134 94 84 q 101 186 94 159 l 246 729 q 343 870 268 811 q 503 929 418 929 l 741 929 q 869 870 826 929 q 898 781 898 831 q 890 729 898 757 l 745 186 q 648 45 723 104 q 488 -14 574 -14 l 251 -14 m 395 271 q 393 256 393 263 q 400 233 393 243 q 431 217 412 217 q 471 233 451 217 q 496 271 490 248 l 597 644 q 599 659 599 652 q 591 683 599 673 q 560 699 580 699 q 521 683 541 699 q 495 644 501 667 l 395 271 m 512 1196 q 602 1234 560 1234 q 738 1187 640 1234 l 801 1237 l 1016 1158 l 825 1008 q 734 970 777 970 q 599 1017 696 970 l 536 967 l 321 1046 l 512 1196 z "},"Ö":{"ha":746,"x_min":94,"x_max":992,"o":"m 251 -14 q 122 45 165 -14 q 94 134 94 84 q 101 186 94 159 l 246 729 q 343 870 268 811 q 503 929 418 929 l 741 929 q 869 870 826 929 q 898 781 898 831 q 890 729 898 757 l 745 186 q 648 45 723 104 q 488 -14 574 -14 l 251 -14 m 395 271 q 393 256 393 263 q 400 233 393 243 q 431 217 412 217 q 471 233 451 217 q 496 271 490 248 l 597 644 q 599 659 599 652 q 591 683 599 673 q 560 699 580 699 q 521 683 541 699 q 495 644 501 667 l 395 271 m 721 1234 l 992 1234 l 930 1004 l 659 1004 l 721 1234 m 416 1234 l 687 1234 l 625 1004 l 354 1004 l 416 1234 z "},"×":{"ha":882,"x_min":62,"x_max":1064,"o":"m 414 446 l 261 827 l 571 827 l 634 670 l 789 827 l 1064 827 l 718 458 l 866 88 l 556 88 l 501 226 l 373 88 l 62 88 l 414 446 z "},"Ø":{"ha":746,"x_min":94,"x_max":898,"o":"m 404 229 q 431 217 415 217 q 471 233 451 217 q 496 271 490 248 l 515 338 l 404 229 m 588 688 l 590 684 l 591 685 q 560 699 580 699 q 521 683 541 699 q 495 644 501 667 l 477 577 l 588 688 m 745 186 q 648 45 723 104 q 488 -14 574 -14 l 251 -14 q 122 45 165 -14 q 94 134 94 84 q 101 186 94 159 l 246 729 q 343 870 268 811 q 503 929 418 929 l 741 929 q 869 870 826 929 q 898 781 898 831 q 890 729 898 757 l 745 186 z "},"Ù":{"ha":746,"x_min":94,"x_max":944,"o":"m 673 929 l 944 929 l 745 186 q 648 45 723 104 q 488 -14 574 -14 l 251 -14 q 122 45 165 -14 q 94 134 94 84 q 101 186 94 159 l 300 929 l 571 929 l 395 271 q 393 256 393 263 q 400 233 393 243 q 431 217 412 217 q 471 233 451 217 q 496 271 490 248 l 673 929 m 425 1234 l 817 1234 l 897 970 l 694 970 l 425 1234 z "},"Ú":{"ha":746,"x_min":94,"x_max":983,"o":"m 673 929 l 944 929 l 745 186 q 648 45 723 104 q 488 -14 574 -14 l 251 -14 q 122 45 165 -14 q 94 134 94 84 q 101 186 94 159 l 300 929 l 571 929 l 395 271 q 393 256 393 263 q 400 233 393 243 q 431 217 412 217 q 471 233 451 217 q 496 271 490 248 l 673 929 m 572 970 l 369 970 l 591 1234 l 983 1234 l 572 970 z "},"Û":{"ha":746,"x_min":94,"x_max":944,"o":"m 673 929 l 944 929 l 745 186 q 648 45 723 104 q 488 -14 574 -14 l 251 -14 q 122 45 165 -14 q 94 134 94 84 q 101 186 94 159 l 300 929 l 571 929 l 395 271 q 393 256 393 263 q 400 233 393 243 q 431 217 412 217 q 471 233 451 217 q 496 271 490 248 l 673 929 m 644 1010 l 610 970 l 332 970 l 593 1234 l 815 1234 l 933 970 l 656 970 l 644 1010 z "},"Ü":{"ha":746,"x_min":94,"x_max":992,"o":"m 673 929 l 944 929 l 745 186 q 648 45 723 104 q 488 -14 574 -14 l 251 -14 q 122 45 165 -14 q 94 134 94 84 q 101 186 94 159 l 300 929 l 571 929 l 395 271 q 393 256 393 263 q 400 233 393 243 q 431 217 412 217 q 471 233 451 217 q 496 271 490 248 l 673 929 m 721 1234 l 992 1234 l 930 1004 l 659 1004 l 721 1234 m 416 1234 l 687 1234 l 625 1004 l 354 1004 l 416 1234 z "},"Ý":{"ha":746,"x_min":193,"x_max":983,"o":"m 531 590 q 570 606 551 590 q 597 644 590 621 l 673 929 l 944 929 l 845 559 q 748 418 823 477 q 605 359 673 359 l 505 -14 l 234 -14 l 334 359 q 222 418 265 359 q 193 507 193 458 q 201 559 193 532 l 300 929 l 571 929 l 495 644 q 492 628 492 635 q 500 606 492 615 q 531 590 511 590 m 572 970 l 369 970 l 591 1234 l 983 1234 l 572 970 z "},"Þ":{"ha":746,"x_min":47,"x_max":852,"o":"m 300 929 l 571 929 l 526 760 l 695 760 q 824 701 781 760 q 852 612 852 661 q 845 559 852 587 l 800 390 q 703 249 778 308 q 543 190 628 190 l 373 190 l 319 -14 l 47 -14 l 300 929 m 464 529 l 435 420 l 486 420 q 525 436 505 420 q 551 475 545 452 q 553 490 553 483 q 546 513 553 503 q 515 529 534 529 l 464 529 z "},"ß":{"ha":746,"x_min":47,"x_max":898,"o":"m 380 217 l 431 217 q 471 233 451 217 q 496 271 490 248 l 506 305 q 508 320 508 313 q 500 344 508 334 q 469 359 489 359 l 418 359 l 380 217 m 480 589 l 531 590 q 570 606 551 590 q 597 644 590 621 q 599 659 599 652 q 591 683 599 673 q 560 699 580 699 q 521 683 541 699 q 495 644 501 667 l 480 589 m 47 -14 l 246 729 q 343 870 268 811 q 503 929 418 929 l 741 929 q 869 870 826 929 q 898 781 898 831 q 890 729 898 757 l 850 576 q 767 475 831 506 q 800 410 800 452 q 795 373 800 393 l 745 186 q 648 45 723 104 q 488 -14 574 -14 l 47 -14 z "},"à":{"ha":746,"x_min":105,"x_max":844,"o":"m 408 258 q 395 252 402 258 q 386 237 389 247 q 385 231 385 233 q 387 222 385 226 q 397 217 391 217 l 482 217 l 493 258 l 408 258 m 370 1031 l 762 1031 l 842 766 l 640 766 l 370 1031 m 551 488 q 549 490 550 489 q 540 495 546 495 l 319 495 l 380 725 l 686 726 q 815 667 772 726 q 844 578 844 627 q 836 526 844 553 l 692 -14 l 302 -14 q 141 60 195 -14 q 105 171 105 109 q 115 237 105 202 q 236 414 142 340 q 436 488 330 488 l 551 488 z "},"á":{"ha":746,"x_min":105,"x_max":928,"o":"m 408 258 q 395 252 402 258 q 386 237 389 247 q 385 231 385 233 q 387 222 385 226 q 397 217 391 217 l 482 217 l 493 258 l 408 258 m 517 766 l 315 766 l 536 1031 l 928 1031 l 517 766 m 551 488 q 549 490 550 489 q 540 495 546 495 l 319 495 l 380 725 l 686 726 q 815 667 772 726 q 844 578 844 627 q 836 526 844 553 l 692 -14 l 302 -14 q 141 60 195 -14 q 105 171 105 109 q 115 237 105 202 q 236 414 142 340 q 436 488 330 488 l 551 488 z "},"â":{"ha":746,"x_min":105,"x_max":879,"o":"m 408 258 q 395 252 402 258 q 386 237 389 247 q 385 231 385 233 q 387 222 385 226 q 397 217 391 217 l 482 217 l 493 258 l 408 258 m 589 807 l 555 766 l 278 766 l 538 1031 l 760 1031 l 879 766 l 602 766 l 589 807 m 551 488 q 549 490 550 489 q 540 495 546 495 l 319 495 l 380 725 l 686 726 q 815 667 772 726 q 844 578 844 627 q 836 526 844 553 l 692 -14 l 302 -14 q 141 60 195 -14 q 105 171 105 109 q 115 237 105 202 q 236 414 142 340 q 436 488 330 488 l 551 488 z "},"ã":{"ha":746,"x_min":105,"x_max":961,"o":"m 408 258 q 395 252 402 258 q 386 237 389 247 q 385 231 385 233 q 387 222 385 226 q 397 217 391 217 l 482 217 l 493 258 l 408 258 m 457 993 q 547 1031 505 1031 q 684 983 585 1031 l 746 1034 l 961 955 l 770 804 q 680 766 722 766 q 545 814 642 766 l 481 764 l 267 842 l 457 993 m 551 488 q 549 490 550 489 q 540 495 546 495 l 319 495 l 380 725 l 686 726 q 815 667 772 726 q 844 578 844 627 q 836 526 844 553 l 692 -14 l 302 -14 q 141 60 195 -14 q 105 171 105 109 q 115 237 105 202 q 236 414 142 340 q 436 488 330 488 l 551 488 z "},"ä":{"ha":746,"x_min":105,"x_max":928,"o":"m 408 258 q 395 252 402 258 q 386 237 389 247 q 385 231 385 233 q 387 222 385 226 q 397 217 391 217 l 482 217 l 493 258 l 408 258 m 657 997 l 928 997 l 867 766 l 595 766 l 657 997 m 352 997 l 623 997 l 562 766 l 290 766 l 352 997 m 551 488 q 549 490 550 489 q 540 495 546 495 l 319 495 l 380 725 l 686 726 q 815 667 772 726 q 844 578 844 627 q 836 526 844 553 l 692 -14 l 302 -14 q 141 60 195 -14 q 105 171 105 109 q 115 237 105 202 q 236 414 142 340 q 436 488 330 488 l 551 488 z "},"å":{"ha":746,"x_min":105,"x_max":844,"o":"m 408 258 q 395 252 402 258 q 386 237 389 247 q 385 231 385 233 q 387 222 385 226 q 397 217 391 217 l 482 217 l 493 258 l 408 258 m 578 766 q 481 805 515 766 q 456 867 456 832 q 461 899 456 882 q 530 992 475 953 q 649 1031 585 1031 q 747 992 713 1031 q 770 929 770 964 q 766 899 770 915 q 697 805 751 844 q 578 766 642 766 m 551 488 q 549 490 550 489 q 540 495 546 495 l 319 495 l 381 726 l 686 726 q 815 667 772 726 q 844 578 844 627 q 836 526 844 553 l 692 -14 l 302 -14 q 141 60 195 -14 q 105 171 105 109 q 115 237 105 202 q 236 414 142 340 q 436 488 330 488 l 551 488 z "},"æ":{"ha":1119,"x_min":105,"x_max":1217,"o":"m 408 258 q 395 252 402 258 q 386 237 389 247 q 385 231 385 233 q 387 222 385 226 q 397 217 391 217 l 482 217 l 493 258 l 408 258 m 919 454 l 919 458 q 910 479 919 467 q 879 495 899 495 q 839 479 859 495 q 817 454 819 464 l 919 454 m 759 224 q 760 222 760 223 q 770 217 764 217 l 1059 217 l 997 -14 l 302 -14 q 141 60 195 -14 q 105 171 105 109 q 115 237 105 202 q 236 414 142 340 q 436 488 330 488 l 551 488 q 549 490 550 489 q 540 495 546 495 l 319 495 l 380 725 l 686 726 q 751 715 727 726 q 822 726 781 726 l 1059 726 q 1188 667 1145 726 q 1217 578 1217 627 q 1209 526 1217 553 l 1128 224 l 759 224 z "},"ç":{"ha":678,"x_min":43,"x_max":822,"o":"m 252 -14 l 251 -14 q 122 45 165 -14 q 94 134 94 84 q 101 186 94 159 l 192 526 q 289 667 214 608 q 449 726 363 726 l 822 726 l 760 495 l 506 495 q 466 479 486 495 q 440 441 446 464 l 395 271 q 393 256 393 263 q 400 233 393 243 q 431 217 412 217 l 686 217 l 624 -14 l 524 -14 l 509 -68 q 230 -285 450 -285 l 43 -285 l 104 -54 l 190 -54 q 252 -14 241 -54 z "},"è":{"ha":746,"x_min":94,"x_max":844,"o":"m 546 454 l 546 458 q 537 479 546 467 q 506 495 526 495 q 466 479 486 495 q 444 454 446 464 l 546 454 m 370 1031 l 762 1031 l 842 766 l 640 766 l 370 1031 m 386 224 q 387 222 387 223 q 397 217 391 217 l 686 217 l 624 -14 l 251 -14 q 122 45 165 -14 q 94 134 94 84 q 101 186 94 159 l 192 526 q 289 667 214 608 q 449 726 363 726 l 686 726 q 815 667 772 726 q 844 578 844 627 q 836 526 844 553 l 755 224 l 386 224 z "},"é":{"ha":746,"x_min":94,"x_max":928,"o":"m 546 454 l 546 458 q 537 479 546 467 q 506 495 526 495 q 466 479 486 495 q 444 454 446 464 l 546 454 m 517 766 l 315 766 l 536 1031 l 928 1031 l 517 766 m 386 224 q 387 222 387 223 q 397 217 391 217 l 686 217 l 624 -14 l 251 -14 q 122 45 165 -14 q 94 134 94 84 q 101 186 94 159 l 192 526 q 289 667 214 608 q 449 726 363 726 l 686 726 q 815 667 772 726 q 844 578 844 627 q 836 526 844 553 l 755 224 l 386 224 z "},"ê":{"ha":746,"x_min":94,"x_max":879,"o":"m 546 454 l 546 458 q 537 479 546 467 q 506 495 526 495 q 466 479 486 495 q 444 454 446 464 l 546 454 m 589 807 l 555 766 l 278 766 l 538 1031 l 760 1031 l 879 766 l 602 766 l 589 807 m 386 224 q 387 222 387 223 q 397 217 391 217 l 686 217 l 624 -14 l 251 -14 q 122 45 165 -14 q 94 134 94 84 q 101 186 94 159 l 192 526 q 289 667 214 608 q 449 726 363 726 l 686 726 q 815 667 772 726 q 844 578 844 627 q 836 526 844 553 l 755 224 l 386 224 z "},"ë":{"ha":746,"x_min":94,"x_max":928,"o":"m 546 454 l 546 458 q 537 479 546 467 q 506 495 526 495 q 466 479 486 495 q 444 454 446 464 l 546 454 m 657 997 l 928 997 l 867 766 l 595 766 l 657 997 m 352 997 l 623 997 l 562 766 l 290 766 l 352 997 m 386 224 q 387 222 387 223 q 397 217 391 217 l 686 217 l 624 -14 l 251 -14 q 122 45 165 -14 q 94 134 94 84 q 101 186 94 159 l 192 526 q 289 667 214 608 q 449 726 363 726 l 686 726 q 815 667 772 726 q 844 578 844 627 q 836 526 844 553 l 755 224 l 386 224 z "},"ì":{"ha":373,"x_min":47,"x_max":656,"o":"m 517 726 l 319 -14 l 47 -14 l 245 726 l 517 726 m 184 1031 l 575 1031 l 656 766 l 453 766 l 184 1031 z "},"í":{"ha":373,"x_min":47,"x_max":741,"o":"m 517 726 l 319 -14 l 47 -14 l 245 726 l 517 726 m 331 766 l 128 766 l 350 1031 l 741 1031 l 331 766 z "},"î":{"ha":373,"x_min":47,"x_max":692,"o":"m 517 726 l 319 -14 l 47 -14 l 245 726 l 517 726 m 403 807 l 369 766 l 92 766 l 351 1031 l 574 1031 l 692 766 l 415 766 l 403 807 z "},"ï":{"ha":373,"x_min":47,"x_max":751,"o":"m 517 726 l 319 -14 l 47 -14 l 245 726 l 517 726 m 479 1031 l 751 1031 l 689 800 l 418 800 l 479 1031 m 174 1031 l 446 1031 l 384 800 l 113 800 l 174 1031 z "},"ð":{"ha":746,"x_min":94,"x_max":871,"o":"m 471 427 q 448 412 468 427 q 422 373 428 396 l 395 271 q 393 256 393 263 q 400 233 393 243 q 414 217 412 217 l 471 427 m 804 658 l 871 658 l 810 427 l 742 427 l 624 -14 l 251 -14 q 122 45 165 -14 q 94 134 94 84 q 101 186 94 159 l 174 458 q 270 599 195 540 q 431 658 345 658 l 532 658 q 533 662 533 660 q 524 683 533 670 q 492 699 512 699 l 374 699 l 435 929 l 673 929 q 802 870 758 929 q 830 781 830 831 q 823 729 830 757 l 804 658 z "},"ñ":{"ha":746,"x_min":47,"x_max":961,"o":"m 319 -14 l 47 -14 l 245 726 l 686 726 q 815 667 772 726 q 844 578 844 627 q 836 526 844 553 l 692 -14 l 420 -14 l 542 441 q 544 456 544 449 q 537 479 544 469 q 506 495 526 495 l 455 495 l 319 -14 m 457 993 q 547 1031 505 1031 q 684 983 585 1031 l 746 1034 l 961 955 l 770 804 q 680 766 722 766 q 545 814 642 766 l 481 764 l 267 842 l 457 993 z "},"ò":{"ha":746,"x_min":94,"x_max":844,"o":"m 251 -14 q 122 45 165 -14 q 94 134 94 84 q 101 186 94 159 l 192 526 q 289 667 214 608 q 449 726 363 726 l 686 726 q 815 667 772 726 q 844 578 844 627 q 836 526 844 553 l 745 186 q 648 45 723 104 q 488 -14 574 -14 l 251 -14 m 395 271 q 393 256 393 263 q 400 233 393 243 q 431 217 412 217 q 471 233 451 217 q 496 271 490 248 l 542 441 q 544 456 544 449 q 537 479 544 469 q 506 495 526 495 q 466 479 486 495 q 440 441 446 464 l 395 271 m 370 1031 l 762 1031 l 842 766 l 640 766 l 370 1031 z "},"ó":{"ha":746,"x_min":94,"x_max":928,"o":"m 251 -14 q 122 45 165 -14 q 94 134 94 84 q 101 186 94 159 l 192 526 q 289 667 214 608 q 449 726 363 726 l 686 726 q 815 667 772 726 q 844 578 844 627 q 836 526 844 553 l 745 186 q 648 45 723 104 q 488 -14 574 -14 l 251 -14 m 395 271 q 393 256 393 263 q 400 233 393 243 q 431 217 412 217 q 471 233 451 217 q 496 271 490 248 l 542 441 q 544 456 544 449 q 537 479 544 469 q 506 495 526 495 q 466 479 486 495 q 440 441 446 464 l 395 271 m 517 766 l 315 766 l 536 1031 l 928 1031 l 517 766 z "},"ô":{"ha":746,"x_min":94,"x_max":879,"o":"m 251 -14 q 122 45 165 -14 q 94 134 94 84 q 101 186 94 159 l 192 526 q 289 667 214 608 q 449 726 363 726 l 686 726 q 815 667 772 726 q 844 578 844 627 q 836 526 844 553 l 745 186 q 648 45 723 104 q 488 -14 574 -14 l 251 -14 m 395 271 q 393 256 393 263 q 400 233 393 243 q 431 217 412 217 q 471 233 451 217 q 496 271 490 248 l 542 441 q 544 456 544 449 q 537 479 544 469 q 506 495 526 495 q 466 479 486 495 q 440 441 446 464 l 395 271 m 589 807 l 555 766 l 278 766 l 538 1031 l 760 1031 l 879 766 l 602 766 l 589 807 z "},"õ":{"ha":746,"x_min":94,"x_max":961,"o":"m 251 -14 q 122 45 165 -14 q 94 134 94 84 q 101 186 94 159 l 192 526 q 289 667 214 608 q 449 726 363 726 l 686 726 q 815 667 772 726 q 844 578 844 627 q 836 526 844 553 l 745 186 q 648 45 723 104 q 488 -14 574 -14 l 251 -14 m 395 271 q 393 256 393 263 q 400 233 393 243 q 431 217 412 217 q 471 233 451 217 q 496 271 490 248 l 542 441 q 544 456 544 449 q 537 479 544 469 q 506 495 526 495 q 466 479 486 495 q 440 441 446 464 l 395 271 m 457 993 q 547 1031 505 1031 q 684 983 585 1031 l 746 1034 l 961 955 l 770 804 q 680 766 722 766 q 545 814 642 766 l 481 764 l 267 842 l 457 993 z "},"ö":{"ha":746,"x_min":94,"x_max":928,"o":"m 251 -14 q 122 45 165 -14 q 94 134 94 84 q 101 186 94 159 l 192 526 q 289 667 214 608 q 449 726 363 726 l 686 726 q 815 667 772 726 q 844 578 844 627 q 836 526 844 553 l 745 186 q 648 45 723 104 q 488 -14 574 -14 l 251 -14 m 395 271 q 393 256 393 263 q 400 233 393 243 q 431 217 412 217 q 471 233 451 217 q 496 271 490 248 l 542 441 q 544 456 544 449 q 537 479 544 469 q 506 495 526 495 q 466 479 486 495 q 440 441 446 464 l 395 271 m 657 997 l 928 997 l 867 766 l 595 766 l 657 997 m 352 997 l 623 997 l 562 766 l 290 766 l 352 997 z "},"÷":{"ha":644,"x_min":71,"x_max":709,"o":"m 71 326 l 132 556 l 709 556 l 647 326 l 71 326 m 212 285 l 484 285 l 421 54 l 150 54 l 212 285 m 357 827 l 629 827 l 567 597 l 296 597 l 357 827 z "},"ø":{"ha":746,"x_min":94,"x_max":844,"o":"m 745 186 q 648 45 723 104 q 488 -14 574 -14 l 251 -14 q 122 45 165 -14 q 94 134 94 84 q 101 186 94 159 l 192 526 q 289 667 214 608 q 449 726 363 726 l 686 726 q 815 667 772 726 q 844 578 844 627 q 836 526 844 553 l 745 186 m 528 491 q 506 495 524 495 q 466 479 486 495 q 440 441 446 464 l 437 431 l 528 491 m 409 221 q 431 217 413 217 q 471 233 451 217 q 496 271 490 248 l 499 281 l 409 221 z "},"ù":{"ha":746,"x_min":94,"x_max":890,"o":"m 618 726 l 890 726 l 692 -14 l 251 -14 q 122 45 165 -14 q 94 134 94 84 q 101 186 94 159 l 245 726 l 517 726 l 395 271 q 393 256 393 263 q 400 233 393 243 q 431 217 412 217 l 482 217 l 618 726 m 370 1031 l 762 1031 l 842 766 l 640 766 l 370 1031 z "},"ú":{"ha":746,"x_min":94,"x_max":928,"o":"m 618 726 l 890 726 l 692 -14 l 251 -14 q 122 45 165 -14 q 94 134 94 84 q 101 186 94 159 l 245 726 l 517 726 l 395 271 q 393 256 393 263 q 400 233 393 243 q 431 217 412 217 l 482 217 l 618 726 m 517 766 l 315 766 l 536 1031 l 928 1031 l 517 766 z "},"û":{"ha":746,"x_min":94,"x_max":890,"o":"m 618 726 l 890 726 l 692 -14 l 251 -14 q 122 45 165 -14 q 94 134 94 84 q 101 186 94 159 l 245 726 l 517 726 l 395 271 q 393 256 393 263 q 400 233 393 243 q 431 217 412 217 l 482 217 l 618 726 m 589 807 l 555 766 l 278 766 l 538 1031 l 760 1031 l 879 766 l 602 766 l 589 807 z "},"ü":{"ha":746,"x_min":94,"x_max":928,"o":"m 618 726 l 890 726 l 692 -14 l 251 -14 q 122 45 165 -14 q 94 134 94 84 q 101 186 94 159 l 245 726 l 517 726 l 395 271 q 393 256 393 263 q 400 233 393 243 q 431 217 412 217 l 482 217 l 618 726 m 657 997 l 928 997 l 867 766 l 595 766 l 657 997 m 352 997 l 623 997 l 562 766 l 290 766 l 352 997 z "},"ý":{"ha":746,"x_min":94,"x_max":928,"o":"m 420 -14 l 251 -14 q 122 45 165 -14 q 94 134 94 84 q 101 186 94 159 l 245 726 l 517 726 l 395 271 q 393 256 393 263 q 400 233 393 243 q 431 217 412 217 l 482 217 l 618 726 l 890 726 l 673 -85 q 575 -226 650 -167 q 415 -285 500 -285 l 110 -285 l 172 -54 l 359 -54 q 398 -39 378 -54 q 420 -14 418 -23 m 517 766 l 315 766 l 536 1031 l 928 1031 l 517 766 z "},"þ":{"ha":746,"x_min":-26,"x_max":844,"o":"m 395 271 q 393 256 393 263 q 400 233 393 243 q 431 217 412 217 q 471 233 451 217 q 496 271 490 248 l 542 441 q 544 456 544 449 q 537 479 544 469 q 506 495 526 495 l 455 495 l 395 271 m 517 726 l 686 726 q 815 667 772 726 q 844 578 844 627 q 836 526 844 553 l 745 186 q 648 45 723 104 q 488 -14 574 -14 l 319 -14 l 245 -285 l -26 -285 l 300 929 l 571 929 l 517 726 z "},"ÿ":{"ha":746,"x_min":94,"x_max":928,"o":"m 420 -14 l 251 -14 q 122 45 165 -14 q 94 134 94 84 q 101 186 94 159 l 245 726 l 517 726 l 395 271 q 393 256 393 263 q 400 233 393 243 q 431 217 412 217 l 482 217 l 618 726 l 890 726 l 673 -85 q 575 -226 650 -167 q 415 -285 500 -285 l 110 -285 l 172 -54 l 359 -54 q 398 -39 378 -54 q 420 -14 418 -23 m 657 997 l 928 997 l 867 766 l 595 766 l 657 997 m 352 997 l 623 997 l 562 766 l 290 766 l 352 997 z "},"ı":{"ha":373,"x_min":47,"x_max":517,"o":"m 517 726 l 319 -14 l 47 -14 l 245 726 l 517 726 z "},"ˆ":{"ha":678,"x_min":298,"x_max":899,"o":"m 610 1010 l 576 970 l 298 970 l 559 1234 l 781 1234 l 899 970 l 622 970 l 610 1010 z "},"ˇ":{"ha":678,"x_min":370,"x_max":970,"o":"m 693 1234 l 970 1234 l 710 970 l 488 970 l 370 1234 l 647 1234 l 659 1194 l 693 1234 z "},"ˉ":{"ha":452,"x_min":197,"x_max":610,"o":"m 197 797 l 227 909 l 610 909 l 581 797 l 197 797 z "},"˘":{"ha":498,"x_min":227,"x_max":664,"o":"m 230 928 l 298 928 l 298 921 q 325 853 298 871 q 422 833 353 833 q 529 852 490 833 q 596 928 568 872 l 664 928 q 550 769 618 819 q 391 718 482 718 q 260 769 301 718 q 227 882 227 808 q 230 928 227 904 z "},"˙":{"ha":339,"x_min":252,"x_max":585,"o":"m 314 1234 l 585 1234 l 524 1004 l 252 1004 l 314 1234 z "},"˚":{"ha":373,"x_min":274,"x_max":588,"o":"m 467 1234 q 564 1196 530 1234 q 588 1134 588 1168 q 583 1102 588 1119 q 514 1009 569 1048 q 395 970 459 970 q 298 1009 332 970 q 274 1072 274 1036 q 278 1102 274 1086 q 348 1196 293 1157 q 467 1234 403 1234 z "},"˛":{"ha":509,"x_min":19,"x_max":444,"o":"m 321 0 q 317 -21 317 -12 q 358 -54 317 -54 l 444 -54 l 380 -285 l 193 -285 q 19 -149 19 -285 q 31 -68 19 -113 l 72 81 l 343 81 l 321 0 z "},"˜":{"ha":746,"x_min":321,"x_max":1016,"o":"m 512 1196 q 602 1234 560 1234 q 738 1187 640 1234 l 801 1237 l 1016 1158 l 825 1008 q 734 970 777 970 q 599 1017 696 970 l 536 967 l 321 1046 l 512 1196 z "},"˝":{"ha":501,"x_min":167,"x_max":667,"o":"m 167 718 l 329 922 q 378 970 355 954 q 425 986 400 986 q 465 968 452 986 q 473 941 473 956 q 471 927 473 935 q 456 899 468 913 q 425 867 444 884 l 240 718 l 167 718 m 360 718 l 522 922 q 571 970 549 954 q 618 986 593 986 q 658 968 645 986 q 667 941 667 956 q 665 927 667 935 q 649 899 661 913 q 618 867 637 884 l 433 718 l 360 718 z "},"–":{"ha":678,"x_min":147,"x_max":785,"o":"m 147 359 l 209 590 l 785 590 l 724 359 l 147 359 z "},"—":{"ha":746,"x_min":147,"x_max":853,"o":"m 147 359 l 209 590 l 853 590 l 791 359 l 147 359 z "},"‘":{"ha":339,"x_min":173,"x_max":503,"o":"m 232 929 l 503 929 l 444 709 l 332 563 l 207 563 l 173 709 l 232 929 z "},"’":{"ha":339,"x_min":173,"x_max":503,"o":"m 232 929 l 503 929 l 444 709 l 332 563 l 207 563 l 173 709 l 232 929 z "},"‚":{"ha":339,"x_min":-18,"x_max":313,"o":"m 41 217 l 313 217 l 254 -3 l 141 -149 l 16 -149 l -18 -3 l 41 217 z "},"“":{"ha":678,"x_min":173,"x_max":842,"o":"m 232 929 l 503 929 l 444 709 l 332 563 l 207 563 l 173 709 l 232 929 m 571 929 l 842 929 l 783 709 l 671 563 l 546 563 l 512 709 l 571 929 z "},"”":{"ha":678,"x_min":173,"x_max":842,"o":"m 232 929 l 503 929 l 444 709 l 332 563 l 207 563 l 173 709 l 232 929 m 571 929 l 842 929 l 783 709 l 671 563 l 546 563 l 512 709 l 571 929 z "},"„":{"ha":678,"x_min":-18,"x_max":652,"o":"m 41 217 l 313 217 l 254 -3 l 141 -149 l 16 -149 l -18 -3 l 41 217 m 380 217 l 652 217 l 593 -3 l 480 -149 l 355 -149 l 321 -3 l 380 217 z "},"†":{"ha":694,"x_min":160,"x_max":796,"o":"m 453 709 q 456 741 456 725 q 446 808 456 774 q 429 890 429 865 q 431 901 429 897 q 477 964 441 940 q 560 988 513 988 q 631 966 606 988 q 648 926 648 949 q 646 907 648 918 q 581 809 639 883 q 519 708 536 753 q 620 741 560 711 q 728 782 703 782 q 787 753 770 782 q 796 714 796 736 q 791 679 796 698 q 749 606 780 637 q 678 576 718 576 q 587 615 652 576 q 503 650 541 645 q 496 593 496 621 q 532 481 496 530 q 273 -197 374 164 l 214 -197 q 317 481 307 164 q 438 650 406 551 q 336 617 395 646 q 227 576 252 576 q 170 605 185 576 q 160 644 160 622 q 165 679 160 660 q 207 751 176 721 q 277 782 237 782 q 368 742 303 782 q 453 709 414 712 z "},"‡":{"ha":694,"x_min":8,"x_max":796,"o":"m 366 142 q 470 176 408 146 q 582 216 555 216 q 636 185 622 216 q 644 148 644 168 q 639 113 644 132 q 595 39 627 68 q 521 9 563 9 q 435 51 496 9 q 351 83 391 80 q 349 52 349 68 q 359 -18 349 20 q 373 -100 373 -72 q 371 -116 373 -110 q 325 -174 361 -152 q 243 -197 288 -197 q 172 -172 195 -197 q 157 -133 157 -156 q 160 -110 157 -122 q 224 -17 165 -88 q 286 83 269 36 q 183 50 245 79 q 70 9 96 9 q 16 40 31 9 q 8 79 8 58 q 13 113 8 94 q 57 186 25 157 q 131 216 89 216 q 217 174 155 216 q 302 142 262 146 q 315 256 315 201 q 293 396 315 328 q 438 650 397 515 q 336 617 395 646 q 227 576 252 576 q 170 605 185 576 q 160 644 160 622 q 165 679 160 660 q 207 751 176 721 q 277 782 237 782 q 368 742 303 782 q 453 709 414 712 q 456 741 456 725 q 446 808 456 774 q 429 890 429 865 q 431 901 429 897 q 477 964 441 940 q 560 988 513 988 q 631 966 606 988 q 648 926 648 949 q 646 907 648 918 q 581 809 639 883 q 519 708 536 753 q 620 741 560 711 q 728 782 703 782 q 787 753 770 782 q 796 714 796 736 q 791 679 796 698 q 749 606 780 637 q 678 576 718 576 q 587 615 652 576 q 503 650 541 645 q 488 532 488 590 q 510 396 488 462 q 366 142 407 276 z "},"•":{"ha":503,"x_min":106,"x_max":557,"o":"m 113 487 q 217 638 137 575 q 389 701 298 701 q 526 637 480 701 q 557 544 557 596 q 549 487 557 517 q 445 336 526 399 q 273 272 363 272 q 136 336 181 272 q 106 431 106 378 q 113 487 106 457 z "},"…":{"ha":983,"x_min":47,"x_max":991,"o":"m 109 217 l 380 217 l 319 -14 l 47 -14 l 109 217 m 414 217 l 686 217 l 624 -14 l 353 -14 l 414 217 m 720 217 l 991 217 l 929 -14 l 658 -14 l 720 217 z "},"‹":{"ha":678,"x_min":182,"x_max":859,"o":"m 182 509 l 544 793 l 859 793 l 497 509 l 705 224 l 391 224 l 182 509 z "},"›":{"ha":678,"x_min":92,"x_max":768,"o":"m 407 224 l 92 224 l 454 509 l 245 793 l 560 793 l 768 509 l 407 224 z "},"⁄":{"ha":746,"x_min":41,"x_max":950,"o":"m 314 -14 l 41 -14 l 677 929 l 950 929 l 314 -14 z "},"₣":{"ha":746,"x_min":65,"x_max":876,"o":"m 306 699 l 368 929 l 876 929 l 814 699 l 306 699 m 195 285 l 277 590 l 785 590 l 724 359 l 486 359 l 467 285 l 602 285 l 540 54 l 404 54 l 387 -14 l 115 -14 l 133 54 l 65 54 l 127 285 l 195 285 z "},"₤":{"ha":678,"x_min":47,"x_max":808,"o":"m 177 217 l 215 359 l 147 359 l 209 590 l 277 590 l 314 729 q 411 870 336 811 q 571 929 486 929 l 808 929 l 747 699 l 628 699 q 589 683 608 699 q 563 644 569 667 l 548 590 l 718 590 l 656 359 l 486 359 l 448 217 l 686 217 l 624 -14 l 47 -14 l 109 217 l 177 217 z "},"₧":{"ha":746,"x_min":65,"x_max":898,"o":"m 195 285 l 277 590 l 531 590 q 570 606 551 590 q 597 644 590 621 q 599 659 599 652 q 591 683 599 673 q 560 699 580 699 l 306 699 l 368 929 l 741 929 q 869 870 826 929 q 898 781 898 831 q 890 729 898 757 l 845 559 q 748 418 823 477 q 588 359 673 359 l 486 359 l 467 285 l 602 285 l 540 54 l 404 54 l 387 -14 l 115 -14 l 133 54 l 65 54 l 127 285 l 195 285 z "},"€":{"ha":678,"x_min":147,"x_max":876,"o":"m 486 359 l 463 271 q 460 256 460 263 q 468 233 460 243 q 499 217 479 217 l 686 217 l 624 -14 l 319 -14 q 190 45 233 -14 q 161 134 161 84 q 169 186 161 159 l 215 359 l 147 359 l 209 590 l 277 590 l 314 729 q 411 870 336 811 q 571 929 486 929 l 876 929 l 814 699 l 628 699 q 589 683 608 699 q 563 644 569 667 l 548 590 l 718 590 l 656 359 l 486 359 z "},"№":{"ha":780,"x_min":191,"x_max":936,"o":"m 463 780 q 465 789 465 785 q 460 804 465 798 q 439 814 453 814 l 286 814 l 313 916 l 526 916 q 584 888 564 916 q 597 848 597 871 q 593 823 597 836 l 496 458 l 377 458 l 463 780 m 309 458 l 191 458 l 268 746 l 387 746 l 309 458 m 623 458 q 565 486 585 458 q 551 526 551 503 q 555 551 551 538 l 627 823 q 672 888 637 861 q 746 916 707 916 l 865 916 q 923 888 903 916 q 936 848 936 871 q 932 823 936 836 l 860 551 q 815 485 850 513 q 742 458 781 458 l 623 458 m 684 593 q 683 585 683 589 q 688 570 683 576 q 709 559 696 559 q 736 570 724 559 q 752 593 749 580 l 802 780 q 804 789 804 785 q 800 804 804 798 q 778 814 792 814 q 751 804 764 814 q 734 780 739 794 l 684 593 z "},"™":{"ha":916,"x_min":275,"x_max":1038,"o":"m 471 746 l 394 458 l 275 458 l 353 746 l 471 746 m 286 814 l 313 916 l 602 916 l 574 814 l 286 814 m 904 780 q 905 789 905 785 q 901 804 905 798 q 880 814 894 814 l 608 814 l 635 916 l 966 916 q 1025 888 1005 916 q 1038 848 1038 871 q 1034 823 1038 836 l 937 458 l 818 458 l 904 780 m 784 458 l 665 458 l 743 746 l 861 746 l 784 458 m 631 458 l 513 458 l 590 746 l 709 746 l 631 458 z "},"∂":{"ha":1119,"x_min":0,"x_max":1017,"o":"m 136 0 q 0 136 0 0 l 0 882 q 136 1017 0 1017 l 882 1017 q 1017 882 1017 1017 l 1017 136 q 882 0 1017 0 l 136 0 m 882 17 q 1000 136 1000 17 l 1000 882 q 882 1000 1000 1000 l 136 1000 q 17 882 18 1000 l 17 136 q 136 17 18 17 l 882 17 z "},"∆":{"ha":1119,"x_min":0,"x_max":1017,"o":"m 136 0 q 0 136 0 0 l 0 882 q 136 1017 0 1017 l 882 1017 q 1017 882 1017 1017 l 1017 136 q 882 0 1017 0 l 136 0 m 882 17 q 1000 136 1000 17 l 1000 882 q 882 1000 1000 1000 l 136 1000 q 17 882 18 1000 l 17 136 q 136 17 18 17 l 882 17 z "},"∏":{"ha":1119,"x_min":0,"x_max":1017,"o":"m 136 0 q 0 136 0 0 l 0 882 q 136 1017 0 1017 l 882 1017 q 1017 882 1017 1017 l 1017 136 q 882 0 1017 0 l 136 0 m 882 17 q 1000 136 1000 17 l 1000 882 q 882 1000 1000 1000 l 136 1000 q 17 882 18 1000 l 17 136 q 136 17 18 17 l 882 17 z "},"∑":{"ha":1119,"x_min":0,"x_max":1017,"o":"m 136 0 q 0 136 0 0 l 0 882 q 136 1017 0 1017 l 882 1017 q 1017 882 1017 1017 l 1017 136 q 882 0 1017 0 l 136 0 m 882 17 q 1000 136 1000 17 l 1000 882 q 882 1000 1000 1000 l 136 1000 q 17 882 18 1000 l 17 136 q 136 17 18 17 l 882 17 z "},"−":{"ha":678,"x_min":147,"x_max":785,"o":"m 147 359 l 209 590 l 785 590 l 724 359 l 147 359 z "},"≈":{"ha":1119,"x_min":0,"x_max":1017,"o":"m 136 0 q 0 136 0 0 l 0 882 q 136 1017 0 1017 l 882 1017 q 1017 882 1017 1017 l 1017 136 q 882 0 1017 0 l 136 0 m 882 17 q 1000 136 1000 17 l 1000 882 q 882 1000 1000 1000 l 136 1000 q 17 882 18 1000 l 17 136 q 136 17 18 17 l 882 17 z "},"≤":{"ha":1119,"x_min":0,"x_max":1017,"o":"m 136 0 q 0 136 0 0 l 0 882 q 136 1017 0 1017 l 882 1017 q 1017 882 1017 1017 l 1017 136 q 882 0 1017 0 l 136 0 m 882 17 q 1000 136 1000 17 l 1000 882 q 882 1000 1000 1000 l 136 1000 q 17 882 18 1000 l 17 136 q 136 17 18 17 l 882 17 z "},"≥":{"ha":1119,"x_min":0,"x_max":1017,"o":"m 136 0 q 0 136 0 0 l 0 882 q 136 1017 0 1017 l 882 1017 q 1017 882 1017 1017 l 1017 136 q 882 0 1017 0 l 136 0 m 882 17 q 1000 136 1000 17 l 1000 882 q 882 1000 1000 1000 l 136 1000 q 17 882 18 1000 l 17 136 q 136 17 18 17 l 882 17 z "},"":{"ha":102,"x_min":0,"x_max":0,"o":""},"":{"ha":102,"x_min":0,"x_max":0,"o":""},"Œ":{"ha":1051,"x_min":94,"x_max":1249,"o":"m 395 271 q 393 256 393 263 q 400 233 393 243 q 431 217 412 217 q 471 233 451 217 q 496 271 490 248 l 597 644 q 599 659 599 652 q 591 683 599 673 q 560 699 580 699 q 521 683 541 699 q 495 644 501 667 l 395 271 m 1249 929 l 1187 699 l 882 699 l 853 590 l 1090 590 l 1029 359 l 791 359 l 753 217 l 1059 217 l 997 -14 l 251 -14 q 122 45 165 -14 q 94 134 94 84 q 101 186 94 159 l 246 729 q 343 870 268 811 q 503 929 418 929 l 1249 929 z "},"œ":{"ha":1119,"x_min":94,"x_max":1217,"o":"m 395 271 q 393 256 393 263 q 400 233 393 243 q 431 217 412 217 q 471 233 451 217 q 496 271 490 248 l 542 441 q 544 456 544 449 q 537 479 544 469 q 506 495 526 495 q 466 479 486 495 q 440 441 446 464 l 395 271 m 919 454 l 919 458 q 910 479 919 467 q 879 495 899 495 q 839 479 859 495 q 817 454 819 464 l 919 454 m 559 1 q 488 -14 530 -14 l 251 -14 q 122 45 165 -14 q 94 134 94 84 q 101 186 94 159 l 192 526 q 289 667 214 608 q 449 726 363 726 l 686 726 q 750 711 728 726 q 822 726 781 726 l 1059 726 q 1188 667 1145 726 q 1217 578 1217 627 q 1209 526 1217 553 l 1128 224 l 755 224 l 753 217 l 1058 216 l 997 -14 l 624 -14 q 559 1 583 -14 z "},"‰":{"ha":1458,"x_min":70,"x_max":1528,"o":"m 477 576 q 475 561 475 568 q 482 538 475 548 q 513 522 493 522 q 552 538 532 522 q 578 576 572 553 l 597 644 q 599 659 599 652 q 591 683 599 673 q 560 699 580 699 q 521 683 541 699 q 495 644 501 667 l 477 576 m 734 271 q 732 256 732 263 q 739 233 732 243 q 770 217 751 217 q 810 233 790 217 q 836 271 829 248 l 854 339 q 856 354 856 347 q 848 378 856 368 q 817 393 837 393 q 778 378 798 393 q 752 339 758 362 l 734 271 m 1107 271 q 1105 256 1105 263 q 1112 233 1105 243 q 1143 217 1124 217 q 1183 233 1163 217 q 1208 271 1202 248 l 1227 339 q 1229 354 1229 347 q 1221 378 1229 368 q 1190 393 1210 393 q 1151 378 1171 393 q 1125 339 1131 362 l 1107 271 m 898 -3 q 827 -14 868 -14 l 590 -14 q 461 47 505 -14 q 449 61 450 61 l 449 60 l 380 -14 l 70 -14 l 355 292 l 332 292 q 204 351 247 292 q 175 439 175 390 q 182 492 175 464 l 246 729 q 343 870 268 811 q 503 929 418 929 l 741 929 q 871 869 826 929 q 882 854 880 854 l 882 855 l 951 929 l 1261 929 l 976 624 l 998 624 q 1063 613 1039 624 q 1134 624 1093 624 l 1371 624 q 1500 565 1457 624 q 1528 477 1528 526 q 1520 424 1528 452 l 1457 186 q 1360 45 1435 104 q 1200 -14 1286 -14 l 963 -14 q 898 -3 922 -14 z "}}}
